solid Created by Gmsh
facet normal -1 -0 0
  outer loop
    vertex -0.12 0.0001615281435324144 0.001640897522870248
    vertex -0.12 -0.0002499999999999942 0.00129903810567666
    vertex -0.12 -0.0002676943712935156 0.001701384585330938
  endloop
endfacet
facet normal -1 0 0
  outer loop
    vertex -0.12 0.0002743253214853181 0.001274863883796269
    vertex -0.12 -0.0002499999999999942 0.00129903810567666
    vertex -0.12 0.0001615281435324144 0.001640897522870248
  endloop
endfacet
facet normal -1 0 0
  outer loop
    vertex -0.12 0.004520360594901284 0.000795065589377523
    vertex -0.12 0.003991894135043793 0.0008084355513991245
    vertex -0.12 0.004148236128092242 0.001201496780561036
  endloop
endfacet
facet normal -1 0 0
  outer loop
    vertex -0.12 -0.004520360594901283 0.001204934410622476
    vertex -0.12 -0.00399047779272787 0.001171079390832748
    vertex -0.12 -0.004204553743712145 0.0008336170781389602
  endloop
endfacet
facet normal -1 0 0
  outer loop
    vertex -0.12 0.003991894135043793 0.0008084355513991245
    vertex -0.12 0.004520360594901284 0.000795065589377523
    vertex -0.12 0.00423270488769344 0.0004004232077422174
  endloop
endfacet
facet normal -1 0 0
  outer loop
    vertex -0.12 -0.00399047779272787 0.001171079390832748
    vertex -0.12 -0.004520360594901283 0.001204934410622476
    vertex -0.12 -0.00423178774583972 0.001596555840456329
  endloop
endfacet
facet normal -1 0 0
  outer loop
    vertex -0.12 0.003750000000000001 0.001566987298107781
    vertex -0.12 0.00427784053619122 0.001602585598710232
    vertex -0.12 0.004148236128092242 0.001201496780561036
  endloop
endfacet
facet normal -1 0 0
  outer loop
    vertex -0.12 0.003743638007687895 0.001149123889924939
    vertex -0.12 0.003750000000000001 0.001566987298107781
    vertex -0.12 0.004148236128092242 0.001201496780561036
  endloop
endfacet
facet normal -1 -0 0
  outer loop
    vertex -0.12 -0.002749999999999962 0.0007009618943233449
    vertex -0.12 -0.003250000000000002 0.0004330127018922197
    vertex -0.12 -0.003246786715328929 0.0008362658103493175
  endloop
endfacet
facet normal -1 0 0
  outer loop
    vertex -0.12 -0.003250000000000002 0.0004330127018922197
    vertex -0.12 -0.002749999999999962 0.0007009618943233449
    vertex -0.12 -0.002749999999999992 0.0003058993511390161
  endloop
endfacet
facet normal -1 0 0
  outer loop
    vertex -0.12 -0.001242044452485104 0.001292605686309985
    vertex -0.12 -0.0007499999999999989 0.001566987298107781
    vertex -0.12 -0.0007484088904970198 0.001168838273320157
  endloop
endfacet
facet normal -1 -0 0
  outer loop
    vertex -0.12 -0.0007499999999999989 0.001566987298107781
    vertex -0.12 -0.001242044452485104 0.001292605686309985
    vertex -0.12 -0.00125 0.001694100648860983
  endloop
endfacet
facet normal -1 0 0
  outer loop
    vertex -0.12 -0.0007499999999999989 0.001566987298107781
    vertex -0.12 -0.0002499999999999942 0.00129903810567666
    vertex -0.12 -0.0007484088904970198 0.001168838273320157
  endloop
endfacet
facet normal -1 0 0
  outer loop
    vertex -0.12 -0.00420243474530676 0.0004226192787583896
    vertex -0.12 -0.003734860608735039 0.0007329679975454489
    vertex -0.12 -0.003746735493234164 0.000308976361889794
  endloop
endfacet
facet normal -1 0 0
  outer loop
    vertex -0.12 -0.0002499999999999942 0.00129903810567666
    vertex -0.12 -0.0007499999999999989 0.001566987298107781
    vertex -0.12 -0.0002676943712935156 0.001701384585330938
  endloop
endfacet
facet normal -1 0 0
  outer loop
    vertex -0.12 0.00250285665822962 0.0008729920169415693
    vertex -0.12 0.002044372161722505 0.001124277213830289
    vertex -0.12 0.00250051720468855 0.001269043523198032
  endloop
endfacet
facet normal -1 -0 0
  outer loop
    vertex -0.12 0.003750000000000001 0.001566987298107781
    vertex -0.12 0.003258048650571672 0.001292841228054948
    vertex -0.12 0.003250000000000001 0.001694100648860986
  endloop
endfacet
facet normal -1 0 0
  outer loop
    vertex -0.12 0.003258048650571672 0.001292841228054948
    vertex -0.12 0.003750000000000001 0.001566987298107781
    vertex -0.12 0.003743638007687895 0.001149123889924939
  endloop
endfacet
facet normal -1 0 0
  outer loop
    vertex -0.12 0.001749999999999999 0.0007009618943233424
    vertex -0.12 0.002210602528363683 0.0004385583085549412
    vertex -0.12 0.001750000000000001 0.0003058993511390129
  endloop
endfacet
facet normal -1 0 0
  outer loop
    vertex -0.12 0.003258048650571672 0.001292841228054948
    vertex -0.12 0.002805156460290845 0.001577382498887571
    vertex -0.12 0.003250000000000001 0.001694100648860986
  endloop
endfacet
facet normal -1 0 0
  outer loop
    vertex -0.12 -0.003250000000000002 0.0004330127018922197
    vertex -0.12 -0.003734860608735039 0.0007329679975454489
    vertex -0.12 -0.003246786715328929 0.0008362658103493175
  endloop
endfacet
facet normal -1 -0 0
  outer loop
    vertex -0.12 0.001446700354093444 0.001128354148118719
    vertex -0.12 0.001000000000000002 0.0008660254037844378
    vertex -0.12 0.0009998050774877613 0.001265080616615563
  endloop
endfacet
facet normal -1 0 0
  outer loop
    vertex -0.12 0.001289397471636319 0.0004385583085549412
    vertex -0.12 0.001749999999999999 0.0007009618943233424
    vertex -0.12 0.001750000000000001 0.0003058993511390129
  endloop
endfacet
facet normal -1 -0 0
  outer loop
    vertex -0.12 0.0006948435397091599 0.00157738249888757
    vertex -0.12 0.0002743253214853181 0.001274863883796269
    vertex -0.12 0.0001615281435324144 0.001640897522870248
  endloop
endfacet
facet normal -1 0 0
  outer loop
    vertex -0.12 -0.001242044452485104 0.001292605686309985
    vertex -0.12 -0.001694843539709158 0.001577382498887571
    vertex -0.12 -0.00125 0.001694100648860983
  endloop
endfacet
facet normal -1 0 -0
  outer loop
    vertex -0.12 -0.003734860608735039 0.0007329679975454489
    vertex -0.12 -0.003250000000000002 0.0004330127018922197
    vertex -0.12 -0.003746735493234164 0.000308976361889794
  endloop
endfacet
facet normal -1 0 0
  outer loop
    vertex -0.12 -0.001998799025743105 0.0008682958073745988
    vertex -0.12 -0.002460590945288822 0.001130597468723701
    vertex -0.12 -0.002000242588728389 0.00126931672943701
  endloop
endfacet
facet normal -1 0 -0
  outer loop
    vertex -0.12 -0.002749999999999962 0.0007009618943233449
    vertex -0.12 -0.002301986396852007 0.0004419071631207976
    vertex -0.12 -0.002749999999999992 0.0003058993511390161
  endloop
endfacet
facet normal -1 0 -0
  outer loop
    vertex -0.12 -0.003249318915198929 0.001567380522601013
    vertex -0.12 -0.002999886485866473 0.00115522569208997
    vertex -0.12 -0.003499186482043168 0.001159160765895604
  endloop
endfacet
facet normal -1 0 0
  outer loop
    vertex -0.12 -0.003745913491193611 0.001569346645067191
    vertex -0.12 -0.003500000000000001 0.002
    vertex -0.12 -0.003249318915198929 0.001567380522601013
  endloop
endfacet
facet normal -1 0 0
  outer loop
    vertex -0.12 -0.003500000000000001 0.002
    vertex -0.12 -0.003 0.002
    vertex -0.12 -0.003249318915198929 0.001567380522601013
  endloop
endfacet
facet normal -1 0 0
  outer loop
    vertex -0.12 -0.003745913491193611 0.001569346645067191
    vertex -0.12 -0.003249318915198929 0.001567380522601013
    vertex -0.12 -0.003499186482043168 0.001159160765895604
  endloop
endfacet
facet normal -1 0 0
  outer loop
    vertex -0.12 -0.0004999999999999987 0.0008448398453255722
    vertex -0.12 -0.0007499999999999998 0.0004294817754824084
    vertex -0.12 -0.001000000000000003 0.0008407204311807904
  endloop
endfacet
facet normal -1 0 0
  outer loop
    vertex -0.12 -0.0002499999999999976 0.0004330127018922204
    vertex -0.12 -0.0004999999999999996 0
    vertex -0.12 -0.0007499999999999998 0.0004294817754824084
  endloop
endfacet
facet normal -1 0 -0
  outer loop
    vertex -0.12 -0.0004999999999999987 0.0008448398453255722
    vertex -0.12 -0.0002499999999999976 0.0004330127018922204
    vertex -0.12 -0.0007499999999999998 0.0004294817754824084
  endloop
endfacet
facet normal -1 0 -0
  outer loop
    vertex -0.12 -0.003745913491193611 0.001569346645067191
    vertex -0.12 -0.003499186482043168 0.001159160765895604
    vertex -0.12 -0.00399047779272787 0.001171079390832748
  endloop
endfacet
facet normal -1 0 0
  outer loop
    vertex -0.12 -0.0004999999999999996 0
    vertex -0.12 -0.001 0
    vertex -0.12 -0.0007499999999999998 0.0004294817754824084
  endloop
endfacet
facet normal -1 0 0
  outer loop
    vertex -0.12 4.336808689942018e-18 0.0008660254037844391
    vertex -0.12 -0.0002499999999999942 0.00129903810567666
    vertex -0.12 0.0002743253214853181 0.001274863883796269
  endloop
endfacet
facet normal -1 0 0
  outer loop
    vertex -0.12 0.001000000000000001 0
    vertex -0.12 0.0005000000000000004 0
    vertex -0.12 0.0007500000000000024 0.0004330127018922205
  endloop
endfacet
facet normal -1 0 0
  outer loop
    vertex -0.12 8.673617379884035e-19 0
    vertex -0.12 -0.0004999999999999996 0
    vertex -0.12 -0.0002499999999999976 0.0004330127018922204
  endloop
endfacet
facet normal -1 -0 0
  outer loop
    vertex -0.12 0.003250000000000001 0.0004330127018922191
    vertex -0.12 0.003000000000000001 0
    vertex -0.12 0.002743433754727282 0.0004339369696693394
  endloop
endfacet
facet normal -1 0 0
  outer loop
    vertex -0.12 0.0005000000000000004 0
    vertex -0.12 0.0002500000000000028 0.0004330127018922195
    vertex -0.12 0.0007500000000000024 0.0004330127018922205
  endloop
endfacet
facet normal -1 0 0
  outer loop
    vertex -0.12 0.002044372161722505 0.001124277213830289
    vertex -0.12 0.001750000000000001 0.001566987298107781
    vertex -0.12 0.002266588103668893 0.001588289159632401
  endloop
endfacet
facet normal -1 0 0
  outer loop
    vertex -0.12 0.0006948435397091599 0.00157738249888757
    vertex -0.12 0.001000000000000001 0.002
    vertex -0.12 0.001240807256618194 0.001589905390029947
  endloop
endfacet
facet normal -1 0 0
  outer loop
    vertex -0.12 0.001750000000000001 0.001566987298107781
    vertex -0.12 0.002 0.002
    vertex -0.12 0.002266588103668893 0.001588289159632401
  endloop
endfacet
facet normal -1 0 0
  outer loop
    vertex -0.12 0.003250000000000001 0.0004330127018922191
    vertex -0.12 0.003503598027132312 0.0008426828912894392
    vertex -0.12 0.003750000000000001 0.0004330127018922189
  endloop
endfacet
facet normal -1 0 0
  outer loop
    vertex -0.12 -0.005 0.0009999999999999998
    vertex -0.12 -0.005 0.0015
    vertex -0.12 -0.004520360594901283 0.001204934410622476
  endloop
endfacet
facet normal -1 0 0
  outer loop
    vertex -0.12 0.003750000000000001 0.001566987298107781
    vertex -0.12 0.004000000000000001 0.002
    vertex -0.12 0.00427784053619122 0.001602585598710232
  endloop
endfacet
facet normal -1 0 0
  outer loop
    vertex -0.12 0.002 0.002
    vertex -0.12 0.002500000000000001 0.002
    vertex -0.12 0.002266588103668893 0.001588289159632401
  endloop
endfacet
facet normal -1 -0 0
  outer loop
    vertex -0.12 0.0002500000000000028 0.0004330127018922195
    vertex -0.12 8.673617379884035e-19 0
    vertex -0.12 -0.0002499999999999976 0.0004330127018922204
  endloop
endfacet
facet normal -1 0 0
  outer loop
    vertex -0.12 -0.001250000000000002 0.0004330127018922187
    vertex -0.12 -0.0015 0
    vertex -0.12 -0.001750000000000002 0.0004330127018922156
  endloop
endfacet
facet normal -1 0 0
  outer loop
    vertex -0.12 0.003503598027132312 0.0008426828912894392
    vertex -0.12 0.003021588162793866 0.0008530836795676493
    vertex -0.12 0.003258048650571672 0.001292841228054948
  endloop
endfacet
facet normal -1 0 0
  outer loop
    vertex -0.12 0.003000000000000001 0
    vertex -0.12 0.002500000000000001 0
    vertex -0.12 0.002743433754727282 0.0004339369696693394
  endloop
endfacet
facet normal -1 0 -0
  outer loop
    vertex -0.12 -0.001477317462994018 0.0008487121395041845
    vertex -0.12 -0.001250000000000002 0.0004330127018922187
    vertex -0.12 -0.001750000000000002 0.0004330127018922156
  endloop
endfacet
facet normal -1 0 0
  outer loop
    vertex -0.12 0.003250000000000001 0.0004330127018922191
    vertex -0.12 0.002743433754727282 0.0004339369696693394
    vertex -0.12 0.003021588162793866 0.0008530836795676493
  endloop
endfacet
facet normal -1 0 0
  outer loop
    vertex -0.12 0.003500000000000001 0.002
    vertex -0.12 0.004000000000000001 0.002
    vertex -0.12 0.003750000000000001 0.001566987298107781
  endloop
endfacet
facet normal -1 0 0
  outer loop
    vertex -0.12 0.0005000000000000004 0.002
    vertex -0.12 0.001000000000000001 0.002
    vertex -0.12 0.0006948435397091599 0.00157738249888757
  endloop
endfacet
facet normal -1 0 0
  outer loop
    vertex -0.12 -0.002 0.002
    vertex -0.12 -0.0015 0.002
    vertex -0.12 -0.001694843539709158 0.001577382498887571
  endloop
endfacet
facet normal -1 0 -0
  outer loop
    vertex -0.12 -0.003 0.002
    vertex -0.12 -0.002749999999999991 0.001566987298107781
    vertex -0.12 -0.003249318915198929 0.001567380522601013
  endloop
endfacet
facet normal -1 0 0
  outer loop
    vertex -0.12 -0.004000000000000001 0.002
    vertex -0.12 -0.003500000000000001 0.002
    vertex -0.12 -0.003745913491193611 0.001569346645067191
  endloop
endfacet
facet normal -1 0 0
  outer loop
    vertex -0.12 0.004000000000000001 0
    vertex -0.12 0.003500000000000001 0
    vertex -0.12 0.003750000000000001 0.0004330127018922189
  endloop
endfacet
facet normal -1 0 0
  outer loop
    vertex -0.12 0.003500000000000001 0
    vertex -0.12 0.003250000000000001 0.0004330127018922191
    vertex -0.12 0.003750000000000001 0.0004330127018922189
  endloop
endfacet
facet normal -1 0 0
  outer loop
    vertex -0.12 0.003250000000000001 0.0004330127018922191
    vertex -0.12 0.003021588162793866 0.0008530836795676493
    vertex -0.12 0.003503598027132312 0.0008426828912894392
  endloop
endfacet
facet normal -1 0 0
  outer loop
    vertex -0.12 0.003750000000000001 0.0004330127018922189
    vertex -0.12 0.003503598027132312 0.0008426828912894392
    vertex -0.12 0.003991894135043793 0.0008084355513991245
  endloop
endfacet
facet normal -1 0 0
  outer loop
    vertex -0.12 0.0015 0.002
    vertex -0.12 0.002 0.002
    vertex -0.12 0.001750000000000001 0.001566987298107781
  endloop
endfacet
facet normal -1 0 0
  outer loop
    vertex -0.12 0.002500000000000001 0
    vertex -0.12 0.002 0
    vertex -0.12 0.002210602528363683 0.0004385583085549412
  endloop
endfacet
facet normal -1 0 0
  outer loop
    vertex -0.12 0.001289397471636319 0.0004385583085549412
    vertex -0.12 0.001000000000000001 0
    vertex -0.12 0.0007500000000000024 0.0004330127018922205
  endloop
endfacet
facet normal -1 0 0
  outer loop
    vertex -0.12 -0.003 0
    vertex -0.12 -0.003500000000000001 0
    vertex -0.12 -0.003250000000000002 0.0004330127018922197
  endloop
endfacet
facet normal -1 0 0
  outer loop
    vertex -0.12 -0.001000000000000003 0.0008407204311807904
    vertex -0.12 -0.001477317462994018 0.0008487121395041845
    vertex -0.12 -0.001242044452485104 0.001292605686309985
  endloop
endfacet
facet normal -1 0 0
  outer loop
    vertex -0.12 -0.001 0.002
    vertex -0.12 -0.0004999999999999996 0.002
    vertex -0.12 -0.0007499999999999989 0.001566987298107781
  endloop
endfacet
facet normal -1 0 0
  outer loop
    vertex -0.12 -0.003 0.002
    vertex -0.12 -0.0025 0.002
    vertex -0.12 -0.002749999999999991 0.001566987298107781
  endloop
endfacet
facet normal -1 0 0
  outer loop
    vertex -0.12 -0.001 0
    vertex -0.12 -0.001250000000000002 0.0004330127018922187
    vertex -0.12 -0.0007499999999999998 0.0004294817754824084
  endloop
endfacet
facet normal -1 0 0
  outer loop
    vertex -0.12 0.001446700354093444 0.001128354148118719
    vertex -0.12 0.001750000000000001 0.001566987298107781
    vertex -0.12 0.002044372161722505 0.001124277213830289
  endloop
endfacet
facet normal -1 0 0
  outer loop
    vertex -0.12 0.001446700354093444 0.001128354148118719
    vertex -0.12 0.002044372161722505 0.001124277213830289
    vertex -0.12 0.001749999999999999 0.0007009618943233424
  endloop
endfacet
facet normal -1 0 0
  outer loop
    vertex -0.12 0.002500000000000001 0.002
    vertex -0.12 0.003000000000000001 0.002
    vertex -0.12 0.002805156460290845 0.001577382498887571
  endloop
endfacet
facet normal -1 0 0
  outer loop
    vertex -0.12 0.003500000000000001 0
    vertex -0.12 0.003000000000000001 0
    vertex -0.12 0.003250000000000001 0.0004330127018922191
  endloop
endfacet
facet normal -1 0 0
  outer loop
    vertex -0.12 0.002500000000000001 0
    vertex -0.12 0.002210602528363683 0.0004385583085549412
    vertex -0.12 0.002743433754727282 0.0004339369696693394
  endloop
endfacet
facet normal -1 0 0
  outer loop
    vertex -0.12 0.0015 0
    vertex -0.12 0.001000000000000001 0
    vertex -0.12 0.001289397471636319 0.0004385583085549412
  endloop
endfacet
facet normal -1 0 0
  outer loop
    vertex -0.12 0.0005000000000000004 0
    vertex -0.12 8.673617379884035e-19 0
    vertex -0.12 0.0002500000000000028 0.0004330127018922195
  endloop
endfacet
facet normal -1 0 0
  outer loop
    vertex -0.12 -0.002 0
    vertex -0.12 -0.0025 0
    vertex -0.12 -0.002301986396852007 0.0004419071631207976
  endloop
endfacet
facet normal -1 0 0
  outer loop
    vertex -0.12 0.0004773174629940204 0.0008529296349381287
    vertex -0.12 4.336808689942018e-18 0.0008660254037844391
    vertex -0.12 0.0002743253214853181 0.001274863883796269
  endloop
endfacet
facet normal -1 -0 0
  outer loop
    vertex -0.12 4.336808689942018e-18 0.0008660254037844391
    vertex -0.12 -0.0004999999999999987 0.0008448398453255722
    vertex -0.12 -0.0002499999999999942 0.00129903810567666
  endloop
endfacet
facet normal -1 0 -0
  outer loop
    vertex -0.12 0.002500000000000001 0.002
    vertex -0.12 0.002805156460290845 0.001577382498887571
    vertex -0.12 0.002266588103668893 0.001588289159632401
  endloop
endfacet
facet normal -1 0 0
  outer loop
    vertex -0.12 -0.001 0
    vertex -0.12 -0.0015 0
    vertex -0.12 -0.001250000000000002 0.0004330127018922187
  endloop
endfacet
facet normal -1 0 0
  outer loop
    vertex -0.12 -0.004000000000000001 0
    vertex -0.12 -0.0045 0
    vertex -0.12 -0.00420243474530676 0.0004226192787583896
  endloop
endfacet
facet normal -1 0 0
  outer loop
    vertex -0.12 0.0002500000000000028 0.0004330127018922195
    vertex -0.12 -0.0002499999999999976 0.0004330127018922204
    vertex -0.12 4.336808689942018e-18 0.0008660254037844391
  endloop
endfacet
facet normal -1 0 0
  outer loop
    vertex -0.12 0.0002500000000000028 0.0004330127018922195
    vertex -0.12 4.336808689942018e-18 0.0008660254037844391
    vertex -0.12 0.0004773174629940204 0.0008529296349381287
  endloop
endfacet
facet normal -1 0 0
  outer loop
    vertex -0.12 -0.002999886485866473 0.00115522569208997
    vertex -0.12 -0.002460590945288822 0.001130597468723701
    vertex -0.12 -0.002749999999999962 0.0007009618943233449
  endloop
endfacet
facet normal -1 0 0
  outer loop
    vertex -0.12 4.336808689942018e-18 0.0008660254037844391
    vertex -0.12 -0.0002499999999999976 0.0004330127018922204
    vertex -0.12 -0.0004999999999999987 0.0008448398453255722
  endloop
endfacet
facet normal -1 0 -0
  outer loop
    vertex -0.12 0.005 0.0009999999999999998
    vertex -0.12 0.005 0.0004999999999999998
    vertex -0.12 0.004520360594901284 0.000795065589377523
  endloop
endfacet
facet normal -1 0 0
  outer loop
    vertex -0.12 0.004000000000000001 0.002
    vertex -0.12 0.004500000000000001 0.002
    vertex -0.12 0.00427784053619122 0.001602585598710232
  endloop
endfacet
facet normal -1 0 0
  outer loop
    vertex -0.12 0.002743433754727282 0.0004339369696693394
    vertex -0.12 0.002210602528363683 0.0004385583085549412
    vertex -0.12 0.00250285665822962 0.0008729920169415693
  endloop
endfacet
facet normal -1 -0 0
  outer loop
    vertex -0.12 -0.001000000000000003 0.0008407204311807904
    vertex -0.12 -0.001250000000000002 0.0004330127018922187
    vertex -0.12 -0.001477317462994018 0.0008487121395041845
  endloop
endfacet
facet normal -1 0 0
  outer loop
    vertex -0.12 0.001000000000000001 0.002
    vertex -0.12 0.0015 0.002
    vertex -0.12 0.001240807256618194 0.001589905390029947
  endloop
endfacet
facet normal -1 0 0
  outer loop
    vertex -0.12 0.001240807256618194 0.001589905390029947
    vertex -0.12 0.001750000000000001 0.001566987298107781
    vertex -0.12 0.001446700354093444 0.001128354148118719
  endloop
endfacet
facet normal -1 -0 0
  outer loop
    vertex -0.12 0.003021588162793866 0.0008530836795676493
    vertex -0.12 0.002743433754727282 0.0004339369696693394
    vertex -0.12 0.00250285665822962 0.0008729920169415693
  endloop
endfacet
facet normal -1 -0 0
  outer loop
    vertex -0.12 0.001289397471636319 0.0004385583085549412
    vertex -0.12 0.0007500000000000024 0.0004330127018922205
    vertex -0.12 0.001000000000000002 0.0008660254037844378
  endloop
endfacet
facet normal -1 0 0
  outer loop
    vertex -0.12 -0.0007499999999999998 0.0004294817754824084
    vertex -0.12 -0.001250000000000002 0.0004330127018922187
    vertex -0.12 -0.001000000000000003 0.0008407204311807904
  endloop
endfacet
facet normal -1 0 0
  outer loop
    vertex -0.12 0.0002500000000000028 0.0004330127018922195
    vertex -0.12 0.0004773174629940204 0.0008529296349381287
    vertex -0.12 0.0007500000000000024 0.0004330127018922205
  endloop
endfacet
facet normal -1 0 -0
  outer loop
    vertex -0.12 0.0015 0.002
    vertex -0.12 0.001750000000000001 0.001566987298107781
    vertex -0.12 0.001240807256618194 0.001589905390029947
  endloop
endfacet
facet normal -1 0 0
  outer loop
    vertex -0.12 -0.00399047779272787 0.001171079390832748
    vertex -0.12 -0.003499186482043168 0.001159160765895604
    vertex -0.12 -0.003734860608735039 0.0007329679975454489
  endloop
endfacet
facet normal -1 0 0
  outer loop
    vertex -0.12 -0.0015 0
    vertex -0.12 -0.002 0
    vertex -0.12 -0.001750000000000002 0.0004330127018922156
  endloop
endfacet
facet normal -1 0 0
  outer loop
    vertex -0.12 -0.002999886485866473 0.00115522569208997
    vertex -0.12 -0.002749999999999991 0.001566987298107781
    vertex -0.12 -0.002460590945288822 0.001130597468723701
  endloop
endfacet
facet normal -1 0 0
  outer loop
    vertex -0.12 0.0007500000000000024 0.0004330127018922205
    vertex -0.12 0.0004773174629940204 0.0008529296349381287
    vertex -0.12 0.001000000000000002 0.0008660254037844378
  endloop
endfacet
facet normal -1 0 0
  outer loop
    vertex -0.12 -0.002 0
    vertex -0.12 -0.002301986396852007 0.0004419071631207976
    vertex -0.12 -0.001750000000000002 0.0004330127018922156
  endloop
endfacet
facet normal -1 0 0
  outer loop
    vertex -0.12 -0.003249318915198929 0.001567380522601013
    vertex -0.12 -0.002749999999999991 0.001566987298107781
    vertex -0.12 -0.002999886485866473 0.00115522569208997
  endloop
endfacet
facet normal -1 0 -0
  outer loop
    vertex -0.12 -0.002 0.002
    vertex -0.12 -0.001694843539709158 0.001577382498887571
    vertex -0.12 -0.002234239080832996 0.001589342535447969
  endloop
endfacet
facet normal -1 0 0
  outer loop
    vertex -0.12 -0.002460590945288822 0.001130597468723701
    vertex -0.12 -0.002749999999999991 0.001566987298107781
    vertex -0.12 -0.002234239080832996 0.001589342535447969
  endloop
endfacet
facet normal -1 -0 0
  outer loop
    vertex -0.12 -0.001477317462994018 0.0008487121395041845
    vertex -0.12 -0.001750000000000002 0.0004330127018922156
    vertex -0.12 -0.001998799025743105 0.0008682958073745988
  endloop
endfacet
facet normal -1 0 0
  outer loop
    vertex -0.12 -0.002749999999999991 0.001566987298107781
    vertex -0.12 -0.0025 0.002
    vertex -0.12 -0.002234239080832996 0.001589342535447969
  endloop
endfacet
facet normal -1 0 0
  outer loop
    vertex -0.12 -0.001750000000000002 0.0004330127018922156
    vertex -0.12 -0.002301986396852007 0.0004419071631207976
    vertex -0.12 -0.001998799025743105 0.0008682958073745988
  endloop
endfacet
facet normal -1 0 0
  outer loop
    vertex -0.12 -0.0025 0.002
    vertex -0.12 -0.002 0.002
    vertex -0.12 -0.002234239080832996 0.001589342535447969
  endloop
endfacet
facet normal -1 0 0
  outer loop
    vertex -0.12 -0.004587251789584122 0.0007453858917293954
    vertex -0.12 -0.004520360594901283 0.001204934410622476
    vertex -0.12 -0.004204553743712145 0.0008336170781389602
  endloop
endfacet
facet normal -1 0 0
  outer loop
    vertex -0.12 0.004605683494729259 0.001286782755846616
    vertex -0.12 0.004520360594901284 0.000795065589377523
    vertex -0.12 0.004148236128092242 0.001201496780561036
  endloop
endfacet
facet normal -1 0 0
  outer loop
    vertex -0.12 0.002210602528363683 0.0004385583085549412
    vertex -0.12 0.001749999999999999 0.0007009618943233424
    vertex -0.12 0.002123228391617563 0.0007828656866950102
  endloop
endfacet
facet normal -1 0 0
  outer loop
    vertex -0.12 0.002805156460290845 0.001577382498887571
    vertex -0.12 0.003258048650571672 0.001292841228054948
    vertex -0.12 0.002817633427314911 0.001173068589329954
  endloop
endfacet
facet normal -1 -0 0
  outer loop
    vertex -0.12 0.001749999999999999 0.0007009618943233424
    vertex -0.12 0.001289397471636319 0.0004385583085549412
    vertex -0.12 0.001371524456432442 0.0007834749386953601
  endloop
endfacet
facet normal -1 0 0
  outer loop
    vertex -0.12 -0.001694843539709158 0.001577382498887571
    vertex -0.12 -0.001242044452485104 0.001292605686309985
    vertex -0.12 -0.001682649413931954 0.00117126257230267
  endloop
endfacet
facet normal -1 0 0
  outer loop
    vertex -0.12 0.0002743253214853181 0.001274863883796269
    vertex -0.12 0.0006948435397091599 0.00157738249888757
    vertex -0.12 0.0006892582803352532 0.001167256407604394
  endloop
endfacet
facet normal -1 0 0
  outer loop
    vertex -0.12 -0.002460590945288822 0.001130597468723701
    vertex -0.12 -0.001998799025743105 0.0008682958073745988
    vertex -0.12 -0.002363904777964095 0.0007874507907065812
  endloop
endfacet
facet normal -1 -0 0
  outer loop
    vertex -0.12 -0.003734860608735039 0.0007329679975454489
    vertex -0.12 -0.00420243474530676 0.0004226192787583896
    vertex -0.12 -0.004204553743712145 0.0008336170781389602
  endloop
endfacet
facet normal -1 0 0
  outer loop
    vertex -0.12 0.002044372161722505 0.001124277213830289
    vertex -0.12 0.00250285665822962 0.0008729920169415693
    vertex -0.12 0.002123228391617563 0.0007828656866950102
  endloop
endfacet
facet normal -1 0 0
  outer loop
    vertex -0.12 0.001000000000000002 0.0008660254037844378
    vertex -0.12 0.001446700354093444 0.001128354148118719
    vertex -0.12 0.001371524456432442 0.0007834749386953601
  endloop
endfacet
facet normal -1 0 0
  outer loop
    vertex -0.12 -0.002301986396852007 0.0004419071631207976
    vertex -0.12 -0.002749999999999962 0.0007009618943233449
    vertex -0.12 -0.002363904777964095 0.0007874507907065812
  endloop
endfacet
facet normal -1 -0 0
  outer loop
    vertex -0.12 -0.003745913491193611 0.001569346645067191
    vertex -0.12 -0.00399047779272787 0.001171079390832748
    vertex -0.12 -0.00423178774583972 0.001596555840456329
  endloop
endfacet
facet normal -1 0 0
  outer loop
    vertex -0.12 0.004500000000000001 0
    vertex -0.12 0.004000000000000001 0
    vertex -0.12 0.00423270488769344 0.0004004232077422174
  endloop
endfacet
facet normal -1 0 -0
  outer loop
    vertex -0.12 0.005 0.0015
    vertex -0.12 0.005 0.0009999999999999998
    vertex -0.12 0.004605683494729259 0.001286782755846616
  endloop
endfacet
facet normal -1 0 0
  outer loop
    vertex -0.12 -0.005 0.0004999999999999998
    vertex -0.12 -0.005 0.0009999999999999998
    vertex -0.12 -0.004587251789584122 0.0007453858917293954
  endloop
endfacet
facet normal -1 0 0
  outer loop
    vertex -0.12 0.003750000000000001 0.0004330127018922189
    vertex -0.12 0.003991894135043793 0.0008084355513991245
    vertex -0.12 0.00423270488769344 0.0004004232077422174
  endloop
endfacet
facet normal -1 0 0
  outer loop
    vertex -0.12 -0.0045 0.002
    vertex -0.12 -0.004000000000000001 0.002
    vertex -0.12 -0.00423178774583972 0.001596555840456329
  endloop
endfacet
facet normal -1 0 -0
  outer loop
    vertex -0.12 -0.004000000000000001 0.002
    vertex -0.12 -0.003745913491193611 0.001569346645067191
    vertex -0.12 -0.00423178774583972 0.001596555840456329
  endloop
endfacet
facet normal -1 -0 0
  outer loop
    vertex -0.12 0.005 0.0009999999999999998
    vertex -0.12 0.004520360594901284 0.000795065589377523
    vertex -0.12 0.004605683494729259 0.001286782755846616
  endloop
endfacet
facet normal -1 0 0
  outer loop
    vertex -0.12 0.004000000000000001 0
    vertex -0.12 0.003750000000000001 0.0004330127018922189
    vertex -0.12 0.00423270488769344 0.0004004232077422174
  endloop
endfacet
facet normal -1 0 0
  outer loop
    vertex -0.12 -0.005 0.0009999999999999998
    vertex -0.12 -0.004520360594901283 0.001204934410622476
    vertex -0.12 -0.004587251789584122 0.0007453858917293954
  endloop
endfacet
facet normal -1 0 -0
  outer loop
    vertex -0.12 -0.002999886485866473 0.00115522569208997
    vertex -0.12 -0.002749999999999962 0.0007009618943233449
    vertex -0.12 -0.003246786715328929 0.0008362658103493175
  endloop
endfacet
facet normal -1 0 0
  outer loop
    vertex -0.12 -0.003 0
    vertex -0.12 -0.003250000000000002 0.0004330127018922197
    vertex -0.12 -0.002749999999999992 0.0003058993511390161
  endloop
endfacet
facet normal -1 0 0
  outer loop
    vertex -0.12 -0.0002499999999999942 0.00129903810567666
    vertex -0.12 -0.0004999999999999987 0.0008448398453255722
    vertex -0.12 -0.0007484088904970198 0.001168838273320157
  endloop
endfacet
facet normal -1 0 0
  outer loop
    vertex -0.12 -0.001000000000000003 0.0008407204311807904
    vertex -0.12 -0.001242044452485104 0.001292605686309985
    vertex -0.12 -0.0007484088904970198 0.001168838273320157
  endloop
endfacet
facet normal -1 0 0
  outer loop
    vertex -0.12 -0.003734860608735039 0.0007329679975454489
    vertex -0.12 -0.003499186482043168 0.001159160765895604
    vertex -0.12 -0.003246786715328929 0.0008362658103493175
  endloop
endfacet
facet normal -1 0 0
  outer loop
    vertex -0.12 -0.004000000000000001 0
    vertex -0.12 -0.00420243474530676 0.0004226192787583896
    vertex -0.12 -0.003746735493234164 0.000308976361889794
  endloop
endfacet
facet normal -1 0 0
  outer loop
    vertex -0.12 0.002044372161722505 0.001124277213830289
    vertex -0.12 0.002266588103668893 0.001588289159632401
    vertex -0.12 0.00250051720468855 0.001269043523198032
  endloop
endfacet
facet normal -1 0 -0
  outer loop
    vertex -0.12 -0.001 0.002
    vertex -0.12 -0.0007499999999999989 0.001566987298107781
    vertex -0.12 -0.00125 0.001694100648860983
  endloop
endfacet
facet normal -1 0 0
  outer loop
    vertex -0.12 -0.001694843539709158 0.001577382498887571
    vertex -0.12 -0.0015 0.002
    vertex -0.12 -0.00125 0.001694100648860983
  endloop
endfacet
facet normal -1 0 0
  outer loop
    vertex -0.12 0.002805156460290845 0.001577382498887571
    vertex -0.12 0.003000000000000001 0.002
    vertex -0.12 0.003250000000000001 0.001694100648860986
  endloop
endfacet
facet normal -1 0 0
  outer loop
    vertex -0.12 0.003503598027132312 0.0008426828912894392
    vertex -0.12 0.003258048650571672 0.001292841228054948
    vertex -0.12 0.003743638007687895 0.001149123889924939
  endloop
endfacet
facet normal -1 0 -0
  outer loop
    vertex -0.12 0.003500000000000001 0.002
    vertex -0.12 0.003750000000000001 0.001566987298107781
    vertex -0.12 0.003250000000000001 0.001694100648860986
  endloop
endfacet
facet normal -1 0 0
  outer loop
    vertex -0.12 0.002210602528363683 0.0004385583085549412
    vertex -0.12 0.002 0
    vertex -0.12 0.001750000000000001 0.0003058993511390129
  endloop
endfacet
facet normal -1 0 0
  outer loop
    vertex -0.12 0.0015 0
    vertex -0.12 0.001289397471636319 0.0004385583085549412
    vertex -0.12 0.001750000000000001 0.0003058993511390129
  endloop
endfacet
facet normal -1 0 -0
  outer loop
    vertex -0.12 0.001240807256618194 0.001589905390029947
    vertex -0.12 0.001446700354093444 0.001128354148118719
    vertex -0.12 0.0009998050774877613 0.001265080616615563
  endloop
endfacet
facet normal -1 0 -0
  outer loop
    vertex -0.12 0.0005000000000000004 0.002
    vertex -0.12 0.0006948435397091599 0.00157738249888757
    vertex -0.12 0.0001615281435324144 0.001640897522870248
  endloop
endfacet
facet normal -1 0 0
  outer loop
    vertex -0.12 -0.003250000000000002 0.0004330127018922197
    vertex -0.12 -0.003500000000000001 0
    vertex -0.12 -0.003746735493234164 0.000308976361889794
  endloop
endfacet
facet normal -1 0 0
  outer loop
    vertex -0.12 -0.0007499999999999989 0.001566987298107781
    vertex -0.12 -0.0004999999999999996 0.002
    vertex -0.12 -0.0002676943712935156 0.001701384585330938
  endloop
endfacet
facet normal -1 0 0
  outer loop
    vertex -0.12 -0.002301986396852007 0.0004419071631207976
    vertex -0.12 -0.0025 0
    vertex -0.12 -0.002749999999999992 0.0003058993511390161
  endloop
endfacet
facet normal -1 0 0
  outer loop
    vertex -0.12 -0.002460590945288822 0.001130597468723701
    vertex -0.12 -0.002234239080832996 0.001589342535447969
    vertex -0.12 -0.002000242588728389 0.00126931672943701
  endloop
endfacet
facet normal -1 0 0
  outer loop
    vertex -0.12 0.004500000000000001 0.002
    vertex -0.12 0.005 0.002
    vertex -0.12 0.004633974596215561 0.001633974596215561
  endloop
endfacet
facet normal -1 0 0
  outer loop
    vertex -0.12 -0.005 0.0015
    vertex -0.12 -0.005 0.002
    vertex -0.12 -0.004633974596215561 0.001633974596215563
  endloop
endfacet
facet normal -1 0 -0
  outer loop
    vertex -0.12 0.005 0.002
    vertex -0.12 0.005 0.0015
    vertex -0.12 0.004633974596215561 0.001633974596215561
  endloop
endfacet
facet normal -1 0 -0
  outer loop
    vertex -0.12 0.005 0.0004999999999999998
    vertex -0.12 0.005 0
    vertex -0.12 0.004633974596215561 0.0003660254037844386
  endloop
endfacet
facet normal -1 0 0
  outer loop
    vertex -0.12 -0.005 0.002
    vertex -0.12 -0.0045 0.002
    vertex -0.12 -0.004633974596215561 0.001633974596215563
  endloop
endfacet
facet normal -1 0 0
  outer loop
    vertex -0.12 0.005 0
    vertex -0.12 0.004500000000000001 0
    vertex -0.12 0.004633974596215561 0.0003660254037844386
  endloop
endfacet
facet normal -1 0 0
  outer loop
    vertex -0.12 -0.005 0
    vertex -0.12 -0.005 0.0004999999999999998
    vertex -0.12 -0.004633974596215565 0.0003660254037844321
  endloop
endfacet
facet normal -1 0 0
  outer loop
    vertex -0.12 -0.0045 0
    vertex -0.12 -0.005 0
    vertex -0.12 -0.004633974596215565 0.0003660254037844321
  endloop
endfacet
facet normal -1 0 0
  outer loop
    vertex -0.12 0.003021588162793866 0.0008530836795676493
    vertex -0.12 0.00250285665822962 0.0008729920169415693
    vertex -0.12 0.002817633427314911 0.001173068589329954
  endloop
endfacet
facet normal -1 0 0
  outer loop
    vertex -0.12 -0.001477317462994018 0.0008487121395041845
    vertex -0.12 -0.001998799025743105 0.0008682958073745988
    vertex -0.12 -0.001682649413931954 0.00117126257230267
  endloop
endfacet
facet normal -1 -0 0
  outer loop
    vertex -0.12 0.001000000000000002 0.0008660254037844378
    vertex -0.12 0.0004773174629940204 0.0008529296349381287
    vertex -0.12 0.0006892582803352532 0.001167256407604394
  endloop
endfacet
facet normal -1 0 0
  outer loop
    vertex -0.12 -0.001998799025743105 0.0008682958073745988
    vertex -0.12 -0.002000242588728389 0.00126931672943701
    vertex -0.12 -0.001682649413931954 0.00117126257230267
  endloop
endfacet
facet normal -1 0 0
  outer loop
    vertex -0.12 0.00250285665822962 0.0008729920169415693
    vertex -0.12 0.00250051720468855 0.001269043523198032
    vertex -0.12 0.002817633427314911 0.001173068589329954
  endloop
endfacet
facet normal -1 0 -0
  outer loop
    vertex -0.12 0.0009998050774877613 0.001265080616615563
    vertex -0.12 0.001000000000000002 0.0008660254037844378
    vertex -0.12 0.0006892582803352532 0.001167256407604394
  endloop
endfacet
facet normal -1 0 -0
  outer loop
    vertex -0.12 -0.00399047779272787 0.001171079390832748
    vertex -0.12 -0.003734860608735039 0.0007329679975454489
    vertex -0.12 -0.004204553743712145 0.0008336170781389602
  endloop
endfacet
facet normal -1 0 0
  outer loop
    vertex -0.12 -0.005 0.0004999999999999998
    vertex -0.12 -0.004587251789584122 0.0007453858917293954
    vertex -0.12 -0.004633974596215565 0.0003660254037844321
  endloop
endfacet
facet normal -1 -0 0
  outer loop
    vertex -0.12 0.005 0.0015
    vertex -0.12 0.004605683494729259 0.001286782755846616
    vertex -0.12 0.004633974596215561 0.001633974596215561
  endloop
endfacet
facet normal -1 0 0
  outer loop
    vertex -0.12 0.004500000000000001 0
    vertex -0.12 0.00423270488769344 0.0004004232077422174
    vertex -0.12 0.004633974596215561 0.0003660254037844386
  endloop
endfacet
facet normal -1 0 -0
  outer loop
    vertex -0.12 -0.0045 0.002
    vertex -0.12 -0.00423178774583972 0.001596555840456329
    vertex -0.12 -0.004633974596215561 0.001633974596215563
  endloop
endfacet
facet normal -1 0 0
  outer loop
    vertex -0.12 -0.003499186482043168 0.001159160765895604
    vertex -0.12 -0.002999886485866473 0.00115522569208997
    vertex -0.12 -0.003246786715328929 0.0008362658103493175
  endloop
endfacet
facet normal -1 -0 0
  outer loop
    vertex -0.12 -0.0004999999999999987 0.0008448398453255722
    vertex -0.12 -0.001000000000000003 0.0008407204311807904
    vertex -0.12 -0.0007484088904970198 0.001168838273320157
  endloop
endfacet
facet normal -1 0 0
  outer loop
    vertex -0.12 -0.002234239080832996 0.001589342535447969
    vertex -0.12 -0.001694843539709158 0.001577382498887571
    vertex -0.12 -0.002000242588728389 0.00126931672943701
  endloop
endfacet
facet normal -1 0 -0
  outer loop
    vertex -0.12 8.673617379884035e-19 0.002
    vertex -0.12 0.0001615281435324144 0.001640897522870248
    vertex -0.12 -0.0002676943712935156 0.001701384585330938
  endloop
endfacet
facet normal -1 0 0
  outer loop
    vertex -0.12 0.0006948435397091599 0.00157738249888757
    vertex -0.12 0.001240807256618194 0.001589905390029947
    vertex -0.12 0.0009998050774877613 0.001265080616615563
  endloop
endfacet
facet normal -1 0 0
  outer loop
    vertex -0.12 -0.0015 0.002
    vertex -0.12 -0.001 0.002
    vertex -0.12 -0.00125 0.001694100648860983
  endloop
endfacet
facet normal -1 0 0
  outer loop
    vertex -0.12 -0.0025 0
    vertex -0.12 -0.003 0
    vertex -0.12 -0.002749999999999992 0.0003058993511390161
  endloop
endfacet
facet normal -1 0 0
  outer loop
    vertex -0.12 -0.003500000000000001 0
    vertex -0.12 -0.004000000000000001 0
    vertex -0.12 -0.003746735493234164 0.000308976361889794
  endloop
endfacet
facet normal -1 0 0
  outer loop
    vertex -0.12 8.673617379884035e-19 0.002
    vertex -0.12 0.0005000000000000004 0.002
    vertex -0.12 0.0001615281435324144 0.001640897522870248
  endloop
endfacet
facet normal -1 0 0
  outer loop
    vertex -0.12 0.003000000000000001 0.002
    vertex -0.12 0.003500000000000001 0.002
    vertex -0.12 0.003250000000000001 0.001694100648860986
  endloop
endfacet
facet normal -1 0 0
  outer loop
    vertex -0.12 0.003991894135043793 0.0008084355513991245
    vertex -0.12 0.003503598027132312 0.0008426828912894392
    vertex -0.12 0.003743638007687895 0.001149123889924939
  endloop
endfacet
facet normal -1 0 0
  outer loop
    vertex -0.12 -0.0004999999999999996 0.002
    vertex -0.12 8.673617379884035e-19 0.002
    vertex -0.12 -0.0002676943712935156 0.001701384585330938
  endloop
endfacet
facet normal -1 0 0
  outer loop
    vertex -0.12 0.002 0
    vertex -0.12 0.0015 0
    vertex -0.12 0.001750000000000001 0.0003058993511390129
  endloop
endfacet
facet normal -1 0 0
  outer loop
    vertex -0.12 0.002266588103668893 0.001588289159632401
    vertex -0.12 0.002805156460290845 0.001577382498887571
    vertex -0.12 0.00250051720468855 0.001269043523198032
  endloop
endfacet
facet normal -1 0 0
  outer loop
    vertex -0.12 -0.004520360594901283 0.001204934410622476
    vertex -0.12 -0.005 0.0015
    vertex -0.12 -0.004633974596215561 0.001633974596215563
  endloop
endfacet
facet normal -1 0 0
  outer loop
    vertex -0.12 0.00427784053619122 0.001602585598710232
    vertex -0.12 0.004500000000000001 0.002
    vertex -0.12 0.004633974596215561 0.001633974596215561
  endloop
endfacet
facet normal -1 0 0
  outer loop
    vertex -0.12 0.004520360594901284 0.000795065589377523
    vertex -0.12 0.005 0.0004999999999999998
    vertex -0.12 0.004633974596215561 0.0003660254037844386
  endloop
endfacet
facet normal -1 0 0
  outer loop
    vertex -0.12 -0.00420243474530676 0.0004226192787583896
    vertex -0.12 -0.0045 0
    vertex -0.12 -0.004633974596215565 0.0003660254037844321
  endloop
endfacet
facet normal -1 0 0
  outer loop
    vertex -0.12 0.00250285665822962 0.0008729920169415693
    vertex -0.12 0.002210602528363683 0.0004385583085549412
    vertex -0.12 0.002123228391617563 0.0007828656866950102
  endloop
endfacet
facet normal -1 0 0
  outer loop
    vertex -0.12 0.001289397471636319 0.0004385583085549412
    vertex -0.12 0.001000000000000002 0.0008660254037844378
    vertex -0.12 0.001371524456432442 0.0007834749386953601
  endloop
endfacet
facet normal -1 0 0
  outer loop
    vertex -0.12 -0.002749999999999962 0.0007009618943233449
    vertex -0.12 -0.002460590945288822 0.001130597468723701
    vertex -0.12 -0.002363904777964095 0.0007874507907065812
  endloop
endfacet
facet normal -1 0 0
  outer loop
    vertex -0.12 0.003258048650571672 0.001292841228054948
    vertex -0.12 0.003021588162793866 0.0008530836795676493
    vertex -0.12 0.002817633427314911 0.001173068589329954
  endloop
endfacet
facet normal -1 0 -0
  outer loop
    vertex -0.12 0.001446700354093444 0.001128354148118719
    vertex -0.12 0.001749999999999999 0.0007009618943233424
    vertex -0.12 0.001371524456432442 0.0007834749386953601
  endloop
endfacet
facet normal -1 0 0
  outer loop
    vertex -0.12 0.001749999999999999 0.0007009618943233424
    vertex -0.12 0.002044372161722505 0.001124277213830289
    vertex -0.12 0.002123228391617563 0.0007828656866950102
  endloop
endfacet
facet normal -1 0 0
  outer loop
    vertex -0.12 0.0004773174629940204 0.0008529296349381287
    vertex -0.12 0.0002743253214853181 0.001274863883796269
    vertex -0.12 0.0006892582803352532 0.001167256407604394
  endloop
endfacet
facet normal -1 0 0
  outer loop
    vertex -0.12 -0.001242044452485104 0.001292605686309985
    vertex -0.12 -0.001477317462994018 0.0008487121395041845
    vertex -0.12 -0.001682649413931954 0.00117126257230267
  endloop
endfacet
facet normal -1 0 0
  outer loop
    vertex -0.12 -0.001998799025743105 0.0008682958073745988
    vertex -0.12 -0.002301986396852007 0.0004419071631207976
    vertex -0.12 -0.002363904777964095 0.0007874507907065812
  endloop
endfacet
facet normal -1 0 -0
  outer loop
    vertex -0.12 -0.004587251789584122 0.0007453858917293954
    vertex -0.12 -0.00420243474530676 0.0004226192787583896
    vertex -0.12 -0.004633974596215565 0.0003660254037844321
  endloop
endfacet
facet normal -1 0 0
  outer loop
    vertex -0.12 0.004605683494729259 0.001286782755846616
    vertex -0.12 0.00427784053619122 0.001602585598710232
    vertex -0.12 0.004633974596215561 0.001633974596215561
  endloop
endfacet
facet normal -1 0 0
  outer loop
    vertex -0.12 0.00423270488769344 0.0004004232077422174
    vertex -0.12 0.004520360594901284 0.000795065589377523
    vertex -0.12 0.004633974596215561 0.0003660254037844386
  endloop
endfacet
facet normal -1 -0 0
  outer loop
    vertex -0.12 -0.00423178774583972 0.001596555840456329
    vertex -0.12 -0.004520360594901283 0.001204934410622476
    vertex -0.12 -0.004633974596215561 0.001633974596215563
  endloop
endfacet
facet normal -1 0 -0
  outer loop
    vertex -0.12 0.00427784053619122 0.001602585598710232
    vertex -0.12 0.004605683494729259 0.001286782755846616
    vertex -0.12 0.004148236128092242 0.001201496780561036
  endloop
endfacet
facet normal -1 0 0
  outer loop
    vertex -0.12 -0.00420243474530676 0.0004226192787583896
    vertex -0.12 -0.004587251789584122 0.0007453858917293954
    vertex -0.12 -0.004204553743712145 0.0008336170781389602
  endloop
endfacet
facet normal -1 0 0
  outer loop
    vertex -0.12 0.003991894135043793 0.0008084355513991245
    vertex -0.12 0.003743638007687895 0.001149123889924939
    vertex -0.12 0.004148236128092242 0.001201496780561036
  endloop
endfacet
facet normal -1 0 0
  outer loop
    vertex -0.12 -0.002000242588728389 0.00126931672943701
    vertex -0.12 -0.001694843539709158 0.001577382498887571
    vertex -0.12 -0.001682649413931954 0.00117126257230267
  endloop
endfacet
facet normal -1 0 0
  outer loop
    vertex -0.12 0.00250051720468855 0.001269043523198032
    vertex -0.12 0.002805156460290845 0.001577382498887571
    vertex -0.12 0.002817633427314911 0.001173068589329954
  endloop
endfacet
facet normal -1 0 -0
  outer loop
    vertex -0.12 0.0006948435397091599 0.00157738249888757
    vertex -0.12 0.0009998050774877613 0.001265080616615563
    vertex -0.12 0.0006892582803352532 0.001167256407604394
  endloop
endfacet
endsolid Created by Gmsh
