solid Created by Gmsh
facet normal -1 0 0
  outer loop
    vertex -0.12 0.03409447654908208 0.0008310341075053433
    vertex -0.12 0.03449109832957712 0.001230816042906558
    vertex -0.12 0.03457949121243644 0.0007493615068939653
  endloop
endfacet
facet normal -1 0 0
  outer loop
    vertex -0.12 0.02542656684612642 0.001270601937522284
    vertex -0.12 0.02600000000000001 0.001133974596215549
    vertex -0.12 0.02550691513150918 0.0007707036465444577
  endloop
endfacet
facet normal -1 -0 0
  outer loop
    vertex -0.12 0.03449109832957712 0.001230816042906558
    vertex -0.12 0.03409447654908208 0.0008310341075053433
    vertex -0.12 0.03392855457946989 0.001231331770274869
  endloop
endfacet
facet normal -1 0 0
  outer loop
    vertex -0.12 0.02550691513150918 0.0007707036465444577
    vertex -0.12 0.02600000000000001 0.001133974596215549
    vertex -0.12 0.02598552514987783 0.0007039673229678801
  endloop
endfacet
facet normal -1 0 -0
  outer loop
    vertex -0.12 0.02600000000000001 0.001133974596215549
    vertex -0.12 0.0264148969472266 0.000796734134929472
    vertex -0.12 0.02598552514987783 0.0007039673229678801
  endloop
endfacet
facet normal -1 0 0
  outer loop
    vertex -0.12 0.02600000000000001 0.001133974596215549
    vertex -0.12 0.02654413557202466 0.001168596906261848
    vertex -0.12 0.0264148969472266 0.000796734134929472
  endloop
endfacet
facet normal -1 0 0
  outer loop
    vertex -0.12 0.02771889790826184 0.001314453033777482
    vertex -0.12 0.02729189654422118 0.001667956277510624
    vertex -0.12 0.02774112759843844 0.001711958362035136
  endloop
endfacet
facet normal -1 -0 0
  outer loop
    vertex -0.12 0.02771889790826184 0.001314453033777482
    vertex -0.12 0.0272344079801428 0.001287150712002181
    vertex -0.12 0.02729189654422118 0.001667956277510624
  endloop
endfacet
facet normal -1 0 0
  outer loop
    vertex -0.12 0.03409447654908208 0.0008310341075053433
    vertex -0.12 0.0335 0.0008660254037844389
    vertex -0.12 0.03392855457946989 0.001231331770274869
  endloop
endfacet
facet normal -1 0 0
  outer loop
    vertex -0.12 0.0335 0.0008660254037844389
    vertex -0.12 0.03350797681449594 0.001287583493565635
    vertex -0.12 0.03392855457946989 0.001231331770274869
  endloop
endfacet
facet normal -1 0 0
  outer loop
    vertex -0.12 0.03424788131535957 0.0004233860225279162
    vertex -0.12 0.03409447654908208 0.0008310341075053433
    vertex -0.12 0.03457949121243644 0.0007493615068939653
  endloop
endfacet
facet normal -1 0 0
  outer loop
    vertex -0.12 0.02600000000000001 0.001133974596215549
    vertex -0.12 0.02542656684612642 0.001270601937522284
    vertex -0.12 0.02576563112196086 0.001591235059190423
  endloop
endfacet
facet normal -1 0 0
  outer loop
    vertex -0.12 0.02575581367065336 0.0003854115352577017
    vertex -0.12 0.02550691513150918 0.0007707036465444577
    vertex -0.12 0.02598552514987783 0.0007039673229678801
  endloop
endfacet
facet normal -1 -0 0
  outer loop
    vertex -0.12 0.03125000000000001 0.0007009618943233495
    vertex -0.12 0.03075 0.0004330127018922182
    vertex -0.12 0.03075000000000001 0.0008297575452595168
  endloop
endfacet
facet normal -1 -0 0
  outer loop
    vertex -0.12 0.02819484353970915 0.001577382498887573
    vertex -0.12 0.02771889790826184 0.001314453033777482
    vertex -0.12 0.02774112759843844 0.001711958362035136
  endloop
endfacet
facet normal -1 0 0
  outer loop
    vertex -0.12 0.0285093083919345 0.0008645876821969118
    vertex -0.12 0.029 0.001133974596215565
    vertex -0.12 0.02900317492744145 0.0007371270620861857
  endloop
endfacet
facet normal -1 0 0
  outer loop
    vertex -0.12 0.029 0.001133974596215565
    vertex -0.12 0.0295 0.0008660254037844372
    vertex -0.12 0.02900317492744145 0.0007371270620861857
  endloop
endfacet
facet normal -1 0 0
  outer loop
    vertex -0.12 0.03075 0.0004330127018922182
    vertex -0.12 0.03125000000000001 0.0007009618943233495
    vertex -0.12 0.03125000000000001 0.0003058993511390181
  endloop
endfacet
facet normal -1 -0 0
  outer loop
    vertex -0.12 0.029 0.001133974596215565
    vertex -0.12 0.0285093083919345 0.0008645876821969118
    vertex -0.12 0.02850840913803228 0.001273145782896594
  endloop
endfacet
facet normal -1 -0 0
  outer loop
    vertex -0.12 0.02994801360314799 0.001128611061396792
    vertex -0.12 0.0295 0.0008660254037844372
    vertex -0.12 0.02948786984073453 0.001261518755694022
  endloop
endfacet
facet normal -1 0 0
  outer loop
    vertex -0.12 0.03075 0.0004330127018922182
    vertex -0.12 0.03025 0.0007009618943233426
    vertex -0.12 0.03075000000000001 0.0008297575452595168
  endloop
endfacet
facet normal -1 0 0
  outer loop
    vertex -0.12 0.03225 0.00156698729810778
    vertex -0.12 0.03275 0.001299038105676658
    vertex -0.12 0.03227116704527066 0.00115376434173157
  endloop
endfacet
facet normal -1 0 0
  outer loop
    vertex -0.12 0.02978939747163632 0.0004385583085549408
    vertex -0.12 0.03025 0.0007009618943233426
    vertex -0.12 0.03025000000000001 0.0003058993511390141
  endloop
endfacet
facet normal -1 0 -0
  outer loop
    vertex -0.12 0.03125000000000001 0.0007009618943233495
    vertex -0.12 0.03171060252836369 0.0004385583085549429
    vertex -0.12 0.03125000000000001 0.0003058993511390181
  endloop
endfacet
facet normal -1 0 0
  outer loop
    vertex -0.12 0.03275 0.001299038105676658
    vertex -0.12 0.03225 0.00156698729810778
    vertex -0.12 0.03275 0.001694100648860986
  endloop
endfacet
facet normal -1 -0 0
  outer loop
    vertex -0.12 0.03319484353970916 0.001577382498887571
    vertex -0.12 0.03275 0.001299038105676658
    vertex -0.12 0.03275 0.001694100648860986
  endloop
endfacet
facet normal -1 0 0
  outer loop
    vertex -0.12 0.03025 0.0007009618943233426
    vertex -0.12 0.03075 0.0004330127018922182
    vertex -0.12 0.03025000000000001 0.0003058993511390141
  endloop
endfacet
facet normal -1 0 -0
  outer loop
    vertex -0.12 0.02654413557202466 0.001168596906261848
    vertex -0.12 0.02694524611133491 0.0008728958502837716
    vertex -0.12 0.0264148969472266 0.000796734134929472
  endloop
endfacet
facet normal -1 0 0
  outer loop
    vertex -0.12 0.0295 0.0008660254037844372
    vertex -0.12 0.029 0.001133974596215565
    vertex -0.12 0.02948786984073453 0.001261518755694022
  endloop
endfacet
facet normal -1 0 0
  outer loop
    vertex -0.12 0.0272344079801428 0.001287150712002181
    vertex -0.12 0.02678939747163632 0.001561441691445054
    vertex -0.12 0.02729189654422118 0.001667956277510624
  endloop
endfacet
facet normal -1 -0 0
  outer loop
    vertex -0.12 0.02978939747163632 0.0004385583085549408
    vertex -0.12 0.02925656624527272 0.0004092204848006607
    vertex -0.12 0.0295 0.0008660254037844372
  endloop
endfacet
facet normal -1 0 0
  outer loop
    vertex -0.12 0.02978939747163632 0.0004385583085549408
    vertex -0.12 0.0295 0
    vertex -0.12 0.02925656624527272 0.0004092204848006607
  endloop
endfacet
facet normal -1 0 0
  outer loop
    vertex -0.12 0.03025 0.00156698729810778
    vertex -0.12 0.0305 0.002
    vertex -0.12 0.03075000000000001 0.001566987298107781
  endloop
endfacet
facet normal -1 0 0
  outer loop
    vertex -0.12 0.03025 0.00156698729810778
    vertex -0.12 0.03075000000000001 0.001566987298107781
    vertex -0.12 0.03050000000000001 0.001158691081084241
  endloop
endfacet
facet normal -1 -0 0
  outer loop
    vertex -0.12 0.02875 0.0004118271434333529
    vertex -0.12 0.0285 0
    vertex -0.12 0.02825 0.000429481775482409
  endloop
endfacet
facet normal -1 0 -0
  outer loop
    vertex -0.12 0.03075000000000001 0.001566987298107781
    vertex -0.12 0.03100000000000001 0.001155160154674432
    vertex -0.12 0.03050000000000001 0.001158691081084241
  endloop
endfacet
facet normal -1 0 0
  outer loop
    vertex -0.12 0.0285 0
    vertex -0.12 0.028 0
    vertex -0.12 0.02825 0.000429481775482409
  endloop
endfacet
facet normal -1 0 0
  outer loop
    vertex -0.12 0.02875 0.0004118271434333529
    vertex -0.12 0.02825 0.000429481775482409
    vertex -0.12 0.0285093083919345 0.0008645876821969118
  endloop
endfacet
facet normal -1 0 0
  outer loop
    vertex -0.12 0.029 0.002
    vertex -0.12 0.0295 0.002
    vertex -0.12 0.02925000000000001 0.001588172856566649
  endloop
endfacet
facet normal -1 0 -0
  outer loop
    vertex -0.12 0.031 0.002
    vertex -0.12 0.03125000000000001 0.001566987298107783
    vertex -0.12 0.03075000000000001 0.001566987298107781
  endloop
endfacet
facet normal -1 0 0
  outer loop
    vertex -0.12 0.02825 0.000429481775482409
    vertex -0.12 0.02797731746299401 0.000852341147203162
    vertex -0.12 0.0285093083919345 0.0008645876821969118
  endloop
endfacet
facet normal -1 0 0
  outer loop
    vertex -0.12 0.02797731746299401 0.000852341147203162
    vertex -0.12 0.02749621957716566 0.0008637446943542187
    vertex -0.12 0.02771889790826184 0.001314453033777482
  endloop
endfacet
facet normal -1 0 -0
  outer loop
    vertex -0.12 0.02625 0.00156698729810778
    vertex -0.12 0.02654413557202466 0.001168596906261848
    vertex -0.12 0.02600000000000001 0.001133974596215549
  endloop
endfacet
facet normal -1 0 0
  outer loop
    vertex -0.12 0.0305 0.002
    vertex -0.12 0.031 0.002
    vertex -0.12 0.03075000000000001 0.001566987298107781
  endloop
endfacet
facet normal -1 0 0
  outer loop
    vertex -0.12 0.0295 0.002
    vertex -0.12 0.03 0.002
    vertex -0.12 0.02974133560052467 0.001590809860506664
  endloop
endfacet
facet normal -1 0 0
  outer loop
    vertex -0.12 0.025 0.0009999999999999998
    vertex -0.12 0.025 0.0015
    vertex -0.12 0.02542656684612642 0.001270601937522284
  endloop
endfacet
facet normal -1 0 -0
  outer loop
    vertex -0.12 0.029 0.002
    vertex -0.12 0.02925000000000001 0.001588172856566649
    vertex -0.12 0.0287408072566182 0.001593436316439759
  endloop
endfacet
facet normal -1 0 0
  outer loop
    vertex -0.12 0.02819484353970915 0.001577382498887573
    vertex -0.12 0.0285 0.002
    vertex -0.12 0.0287408072566182 0.001593436316439759
  endloop
endfacet
facet normal -1 0 0
  outer loop
    vertex -0.12 0.032 0
    vertex -0.12 0.0315 0
    vertex -0.12 0.03171060252836369 0.0004385583085549429
  endloop
endfacet
facet normal -1 0 0
  outer loop
    vertex -0.12 0.031 0
    vertex -0.12 0.0305 0
    vertex -0.12 0.03075 0.0004330127018922182
  endloop
endfacet
facet normal -1 0 0
  outer loop
    vertex -0.12 0.029 0
    vertex -0.12 0.0285 0
    vertex -0.12 0.02875 0.0004118271434333529
  endloop
endfacet
facet normal -1 0 0
  outer loop
    vertex -0.12 0.02724024428141677 0.0004337776580704039
    vertex -0.12 0.027 0
    vertex -0.12 0.02675 0.0004330127018922138
  endloop
endfacet
facet normal -1 0 0
  outer loop
    vertex -0.12 0.0287408072566182 0.001593436316439759
    vertex -0.12 0.02925000000000001 0.001588172856566649
    vertex -0.12 0.029 0.001133974596215565
  endloop
endfacet
facet normal -1 0 0
  outer loop
    vertex -0.12 0.03224343375472728 0.0004339369696693401
    vertex -0.12 0.03250395689909397 0.0008368377435917628
    vertex -0.12 0.03274956510897021 0.0004283021364896269
  endloop
endfacet
facet normal -1 0 0
  outer loop
    vertex -0.12 0.033 0
    vertex -0.12 0.0325 0
    vertex -0.12 0.03274956510897021 0.0004283021364896269
  endloop
endfacet
facet normal -1 0 0
  outer loop
    vertex -0.12 0.02994801360314799 0.001128611061396792
    vertex -0.12 0.03050000000000001 0.001158691081084241
    vertex -0.12 0.03025 0.0007009618943233426
  endloop
endfacet
facet normal -1 0 -0
  outer loop
    vertex -0.12 0.03 0.002
    vertex -0.12 0.03025 0.00156698729810778
    vertex -0.12 0.02974133560052467 0.001590809860506664
  endloop
endfacet
facet normal -1 0 0
  outer loop
    vertex -0.12 0.03 0
    vertex -0.12 0.0295 0
    vertex -0.12 0.02978939747163632 0.0004385583085549408
  endloop
endfacet
facet normal -1 0 0
  outer loop
    vertex -0.12 0.0285 0.002
    vertex -0.12 0.029 0.002
    vertex -0.12 0.0287408072566182 0.001593436316439759
  endloop
endfacet
facet normal -1 0 0
  outer loop
    vertex -0.12 0.0325 0
    vertex -0.12 0.03224343375472728 0.0004339369696693401
    vertex -0.12 0.03274956510897021 0.0004283021364896269
  endloop
endfacet
facet normal -1 0 0
  outer loop
    vertex -0.12 0.032 0
    vertex -0.12 0.03171060252836369 0.0004385583085549429
    vertex -0.12 0.03224343375472728 0.0004339369696693401
  endloop
endfacet
facet normal -1 -0 0
  outer loop
    vertex -0.12 0.03297790446433805 0.0008472799306722515
    vertex -0.12 0.03250395689909397 0.0008368377435917628
    vertex -0.12 0.03275 0.001299038105676658
  endloop
endfacet
facet normal -1 -0 0
  outer loop
    vertex -0.12 0.03424788131535957 0.0004233860225279162
    vertex -0.12 0.034 0
    vertex -0.12 0.03374964688589326 0.0004314082553315021
  endloop
endfacet
facet normal -1 -0 0
  outer loop
    vertex -0.12 0.03025 0.00156698729810778
    vertex -0.12 0.02994801360314799 0.001128611061396792
    vertex -0.12 0.02974133560052467 0.001590809860506664
  endloop
endfacet
facet normal -1 0 0
  outer loop
    vertex -0.12 0.0335 0.002
    vertex -0.12 0.034 0.002
    vertex -0.12 0.03375 0.00156698729810778
  endloop
endfacet
facet normal -1 0 0
  outer loop
    vertex -0.12 0.033 0.002
    vertex -0.12 0.0335 0.002
    vertex -0.12 0.03319484353970916 0.001577382498887571
  endloop
endfacet
facet normal -1 0 -0
  outer loop
    vertex -0.12 0.0335 0.002
    vertex -0.12 0.03375 0.00156698729810778
    vertex -0.12 0.03319484353970916 0.001577382498887571
  endloop
endfacet
facet normal -1 0 0
  outer loop
    vertex -0.12 0.032 0.002
    vertex -0.12 0.0325 0.002
    vertex -0.12 0.03225 0.00156698729810778
  endloop
endfacet
facet normal -1 0 0
  outer loop
    vertex -0.12 0.03 0.002
    vertex -0.12 0.0305 0.002
    vertex -0.12 0.03025 0.00156698729810778
  endloop
endfacet
facet normal -1 0 0
  outer loop
    vertex -0.12 0.028 0.002
    vertex -0.12 0.0285 0.002
    vertex -0.12 0.02819484353970915 0.001577382498887573
  endloop
endfacet
facet normal -1 0 0
  outer loop
    vertex -0.12 0.0265 0.002
    vertex -0.12 0.027 0.002
    vertex -0.12 0.02678939747163632 0.001561441691445054
  endloop
endfacet
facet normal -1 0 0
  outer loop
    vertex -0.12 0.026 0.002
    vertex -0.12 0.0265 0.002
    vertex -0.12 0.02625 0.00156698729810778
  endloop
endfacet
facet normal -1 0 -0
  outer loop
    vertex -0.12 0.0265 0.002
    vertex -0.12 0.02678939747163632 0.001561441691445054
    vertex -0.12 0.02625 0.00156698729810778
  endloop
endfacet
facet normal -1 0 0
  outer loop
    vertex -0.12 0.0335 0
    vertex -0.12 0.03325 0.0004330127018922197
    vertex -0.12 0.03374964688589326 0.0004314082553315021
  endloop
endfacet
facet normal -1 0 0
  outer loop
    vertex -0.12 0.029 0
    vertex -0.12 0.02875 0.0004118271434333529
    vertex -0.12 0.02925656624527272 0.0004092204848006607
  endloop
endfacet
facet normal -1 0 0
  outer loop
    vertex -0.12 0.028 0
    vertex -0.12 0.0275 0
    vertex -0.12 0.02775 0.0004330127018922197
  endloop
endfacet
facet normal -1 0 0
  outer loop
    vertex -0.12 0.03075000000000001 0.001566987298107781
    vertex -0.12 0.03125000000000001 0.001566987298107783
    vertex -0.12 0.03100000000000001 0.001155160154674432
  endloop
endfacet
facet normal -1 0 -0
  outer loop
    vertex -0.12 0.03025 0.00156698729810778
    vertex -0.12 0.03050000000000001 0.001158691081084241
    vertex -0.12 0.02994801360314799 0.001128611061396792
  endloop
endfacet
facet normal -1 0 0
  outer loop
    vertex -0.12 0.0345 0
    vertex -0.12 0.034 0
    vertex -0.12 0.03424788131535957 0.0004233860225279162
  endloop
endfacet
facet normal -1 0 0
  outer loop
    vertex -0.12 0.034 0
    vertex -0.12 0.0335 0
    vertex -0.12 0.03374964688589326 0.0004314082553315021
  endloop
endfacet
facet normal -1 0 0
  outer loop
    vertex -0.12 0.0335 0
    vertex -0.12 0.033 0
    vertex -0.12 0.03325 0.0004330127018922197
  endloop
endfacet
facet normal -1 0 0
  outer loop
    vertex -0.12 0.0325 0
    vertex -0.12 0.032 0
    vertex -0.12 0.03224343375472728 0.0004339369696693401
  endloop
endfacet
facet normal -1 0 0
  outer loop
    vertex -0.12 0.0265 0
    vertex -0.12 0.026 0
    vertex -0.12 0.02625 0.0004330127018922197
  endloop
endfacet
facet normal -1 0 0
  outer loop
    vertex -0.12 0.02625 0.00156698729810778
    vertex -0.12 0.02678939747163632 0.001561441691445054
    vertex -0.12 0.02654413557202466 0.001168596906261848
  endloop
endfacet
facet normal -1 0 0
  outer loop
    vertex -0.12 0.03374964688589326 0.0004314082553315021
    vertex -0.12 0.03325 0.0004330127018922197
    vertex -0.12 0.0335 0.0008660254037844389
  endloop
endfacet
facet normal -1 0 0
  outer loop
    vertex -0.12 0.0335 0.0008660254037844389
    vertex -0.12 0.03325 0.0004330127018922197
    vertex -0.12 0.03297790446433805 0.0008472799306722515
  endloop
endfacet
facet normal -1 -0 0
  outer loop
    vertex -0.12 0.03325 0.0004330127018922197
    vertex -0.12 0.03274956510897021 0.0004283021364896269
    vertex -0.12 0.03297790446433805 0.0008472799306722515
  endloop
endfacet
facet normal -1 0 0
  outer loop
    vertex -0.12 0.03325 0.0004330127018922197
    vertex -0.12 0.033 0
    vertex -0.12 0.03274956510897021 0.0004283021364896269
  endloop
endfacet
facet normal -1 0 0
  outer loop
    vertex -0.12 0.028 0
    vertex -0.12 0.02775 0.0004330127018922197
    vertex -0.12 0.02825 0.000429481775482409
  endloop
endfacet
facet normal -1 0 0
  outer loop
    vertex -0.12 0.03224343375472728 0.0004339369696693401
    vertex -0.12 0.03171060252836369 0.0004385583085549429
    vertex -0.12 0.03203030763983653 0.0008170885256044667
  endloop
endfacet
facet normal -1 0 0
  outer loop
    vertex -0.12 0.03224343375472728 0.0004339369696693401
    vertex -0.12 0.03203030763983653 0.0008170885256044667
    vertex -0.12 0.03250395689909397 0.0008368377435917628
  endloop
endfacet
facet normal -1 0 0
  outer loop
    vertex -0.12 0.03374964688589326 0.0004314082553315021
    vertex -0.12 0.0335 0.0008660254037844389
    vertex -0.12 0.03409447654908208 0.0008310341075053433
  endloop
endfacet
facet normal -1 0 -0
  outer loop
    vertex -0.12 0.02694524611133491 0.0008728958502837716
    vertex -0.12 0.02724024428141677 0.0004337776580704039
    vertex -0.12 0.02675 0.0004330127018922138
  endloop
endfacet
facet normal -1 0 0
  outer loop
    vertex -0.12 0.03424788131535957 0.0004233860225279162
    vertex -0.12 0.03374964688589326 0.0004314082553315021
    vertex -0.12 0.03409447654908208 0.0008310341075053433
  endloop
endfacet
facet normal -1 0 0
  outer loop
    vertex -0.12 0.03274956510897021 0.0004283021364896269
    vertex -0.12 0.03250395689909397 0.0008368377435917628
    vertex -0.12 0.03297790446433805 0.0008472799306722515
  endloop
endfacet
facet normal -1 0 0
  outer loop
    vertex -0.12 0.03100000000000001 0.001155160154674432
    vertex -0.12 0.03125000000000001 0.001566987298107783
    vertex -0.12 0.03150000000000001 0.001133974596215569
  endloop
endfacet
facet normal -1 0 -0
  outer loop
    vertex -0.12 0.035 0.0015
    vertex -0.12 0.035 0.0009999999999999998
    vertex -0.12 0.03449109832957712 0.001230816042906558
  endloop
endfacet
facet normal -1 0 -0
  outer loop
    vertex -0.12 0.032 0.002
    vertex -0.12 0.03225 0.00156698729810778
    vertex -0.12 0.03172731746299402 0.001580083066954092
  endloop
endfacet
facet normal -1 0 0
  outer loop
    vertex -0.12 0.02825 0.000429481775482409
    vertex -0.12 0.02775 0.0004330127018922197
    vertex -0.12 0.02797731746299401 0.000852341147203162
  endloop
endfacet
facet normal -1 0 0
  outer loop
    vertex -0.12 0.02771889790826184 0.001314453033777482
    vertex -0.12 0.02749621957716566 0.0008637446943542187
    vertex -0.12 0.0272344079801428 0.001287150712002181
  endloop
endfacet
facet normal -1 0 -0
  outer loop
    vertex -0.12 0.0272344079801428 0.001287150712002181
    vertex -0.12 0.02749621957716566 0.0008637446943542187
    vertex -0.12 0.02694524611133491 0.0008728958502837716
  endloop
endfacet
facet normal -1 0 0
  outer loop
    vertex -0.12 0.0315 0.002
    vertex -0.12 0.032 0.002
    vertex -0.12 0.03172731746299402 0.001580083066954092
  endloop
endfacet
facet normal -1 0 0
  outer loop
    vertex -0.12 0.0295 0
    vertex -0.12 0.029 0
    vertex -0.12 0.02925656624527272 0.0004092204848006607
  endloop
endfacet
facet normal -1 0 0
  outer loop
    vertex -0.12 0.02694524611133491 0.0008728958502837716
    vertex -0.12 0.02749621957716566 0.0008637446943542187
    vertex -0.12 0.02724024428141677 0.0004337776580704039
  endloop
endfacet
facet normal -1 -0 0
  outer loop
    vertex -0.12 0.02797731746299401 0.000852341147203162
    vertex -0.12 0.02775 0.0004330127018922197
    vertex -0.12 0.02749621957716566 0.0008637446943542187
  endloop
endfacet
facet normal -1 0 0
  outer loop
    vertex -0.12 0.031 0.002
    vertex -0.12 0.0315 0.002
    vertex -0.12 0.03125000000000001 0.001566987298107783
  endloop
endfacet
facet normal -1 0 0
  outer loop
    vertex -0.12 0.027 0
    vertex -0.12 0.0265 0
    vertex -0.12 0.02675 0.0004330127018922138
  endloop
endfacet
facet normal -1 0 0
  outer loop
    vertex -0.12 0.02925000000000001 0.001588172856566649
    vertex -0.12 0.0295 0.002
    vertex -0.12 0.02974133560052467 0.001590809860506664
  endloop
endfacet
facet normal -1 0 0
  outer loop
    vertex -0.12 0.02625 0.0004330127018922197
    vertex -0.12 0.026 0
    vertex -0.12 0.02575581367065336 0.0003854115352577017
  endloop
endfacet
facet normal -1 0 0
  outer loop
    vertex -0.12 0.03150000000000001 0.001133974596215569
    vertex -0.12 0.03125000000000001 0.001566987298107783
    vertex -0.12 0.03172731746299402 0.001580083066954092
  endloop
endfacet
facet normal -1 0 0
  outer loop
    vertex -0.12 0.0265 0
    vertex -0.12 0.02625 0.0004330127018922197
    vertex -0.12 0.02675 0.0004330127018922138
  endloop
endfacet
facet normal -1 0 0
  outer loop
    vertex -0.12 0.026 0
    vertex -0.12 0.0255 0
    vertex -0.12 0.02575581367065336 0.0003854115352577017
  endloop
endfacet
facet normal -1 0 -0
  outer loop
    vertex -0.12 0.02749621957716566 0.0008637446943542187
    vertex -0.12 0.02775 0.0004330127018922197
    vertex -0.12 0.02724024428141677 0.0004337776580704039
  endloop
endfacet
facet normal -1 0 0
  outer loop
    vertex -0.12 0.0275 0
    vertex -0.12 0.027 0
    vertex -0.12 0.02724024428141677 0.0004337776580704039
  endloop
endfacet
facet normal -1 0 0
  outer loop
    vertex -0.12 0.03100000000000001 0.001155160154674432
    vertex -0.12 0.03150000000000001 0.001133974596215569
    vertex -0.12 0.03125000000000001 0.0007009618943233495
  endloop
endfacet
facet normal -1 -0 0
  outer loop
    vertex -0.12 0.02775 0.0004330127018922197
    vertex -0.12 0.0275 0
    vertex -0.12 0.02724024428141677 0.0004337776580704039
  endloop
endfacet
facet normal -1 0 0
  outer loop
    vertex -0.12 0.03125000000000001 0.001566987298107783
    vertex -0.12 0.0315 0.002
    vertex -0.12 0.03172731746299402 0.001580083066954092
  endloop
endfacet
facet normal -1 0 -0
  outer loop
    vertex -0.12 0.03422777578366417 0.001605544275779458
    vertex -0.12 0.03449109832957712 0.001230816042906558
    vertex -0.12 0.03392855457946989 0.001231331770274869
  endloop
endfacet
facet normal -1 0 0
  outer loop
    vertex -0.12 0.02771889790826184 0.001314453033777482
    vertex -0.12 0.02819484353970915 0.001577382498887573
    vertex -0.12 0.02816236942812285 0.001188976732879907
  endloop
endfacet
facet normal -1 -0 0
  outer loop
    vertex -0.12 0.03025 0.0007009618943233426
    vertex -0.12 0.02978939747163632 0.0004385583085549408
    vertex -0.12 0.02987185276869608 0.0007835391670148781
  endloop
endfacet
facet normal -1 0 0
  outer loop
    vertex -0.12 0.03275 0.001299038105676658
    vertex -0.12 0.03319484353970916 0.001577382498887571
    vertex -0.12 0.03318614496370863 0.001175461886517311
  endloop
endfacet
facet normal -1 0 0
  outer loop
    vertex -0.12 0.03171060252836369 0.0004385583085549429
    vertex -0.12 0.03125000000000001 0.0007009618943233495
    vertex -0.12 0.03163599559256073 0.0008075768517319792
  endloop
endfacet
facet normal -1 0 0
  outer loop
    vertex -0.12 0.02678939747163632 0.001561441691445054
    vertex -0.12 0.0272344079801428 0.001287150712002181
    vertex -0.12 0.02688609522203588 0.00122046349259878
  endloop
endfacet
facet normal -1 0 0
  outer loop
    vertex -0.12 0.02694524611133491 0.0008728958502837716
    vertex -0.12 0.02654413557202466 0.001168596906261848
    vertex -0.12 0.02688609522203588 0.00122046349259878
  endloop
endfacet
facet normal -1 0 0
  outer loop
    vertex -0.12 0.0295 0.0008660254037844372
    vertex -0.12 0.02994801360314799 0.001128611061396792
    vertex -0.12 0.02987185276869608 0.0007835391670148781
  endloop
endfacet
facet normal -1 -0 0
  outer loop
    vertex -0.12 0.02625 0.00156698729810778
    vertex -0.12 0.02600000000000001 0.001133974596215549
    vertex -0.12 0.02576563112196086 0.001591235059190423
  endloop
endfacet
facet normal -1 0 0
  outer loop
    vertex -0.12 0.034 0.002
    vertex -0.12 0.0345 0.002
    vertex -0.12 0.03422777578366417 0.001605544275779458
  endloop
endfacet
facet normal -1 0 -0
  outer loop
    vertex -0.12 0.035 0.0009999999999999998
    vertex -0.12 0.035 0.0004999999999999998
    vertex -0.12 0.03457949121243644 0.0007493615068939653
  endloop
endfacet
facet normal -1 0 0
  outer loop
    vertex -0.12 0.0255 0.002
    vertex -0.12 0.026 0.002
    vertex -0.12 0.02576563112196086 0.001591235059190423
  endloop
endfacet
facet normal -1 0 0
  outer loop
    vertex -0.12 0.025 0.0004999999999999998
    vertex -0.12 0.025 0.0009999999999999998
    vertex -0.12 0.02550691513150918 0.0007707036465444577
  endloop
endfacet
facet normal -1 0 0
  outer loop
    vertex -0.12 0.025 0.0009999999999999998
    vertex -0.12 0.02542656684612642 0.001270601937522284
    vertex -0.12 0.02550691513150918 0.0007707036465444577
  endloop
endfacet
facet normal -1 0 -0
  outer loop
    vertex -0.12 0.026 0.002
    vertex -0.12 0.02625 0.00156698729810778
    vertex -0.12 0.02576563112196086 0.001591235059190423
  endloop
endfacet
facet normal -1 0 0
  outer loop
    vertex -0.12 0.03449109832957712 0.001230816042906558
    vertex -0.12 0.035 0.0009999999999999998
    vertex -0.12 0.03457949121243644 0.0007493615068939653
  endloop
endfacet
facet normal -1 0 0
  outer loop
    vertex -0.12 0.03375 0.00156698729810778
    vertex -0.12 0.034 0.002
    vertex -0.12 0.03422777578366417 0.001605544275779458
  endloop
endfacet
facet normal -1 0 0
  outer loop
    vertex -0.12 0.02678939747163632 0.001561441691445054
    vertex -0.12 0.027 0.002
    vertex -0.12 0.02729189654422118 0.001667956277510624
  endloop
endfacet
facet normal -1 0 0
  outer loop
    vertex -0.12 0.031 0
    vertex -0.12 0.03075 0.0004330127018922182
    vertex -0.12 0.03125000000000001 0.0003058993511390181
  endloop
endfacet
facet normal -1 0 -0
  outer loop
    vertex -0.12 0.028 0.002
    vertex -0.12 0.02819484353970915 0.001577382498887573
    vertex -0.12 0.02774112759843844 0.001711958362035136
  endloop
endfacet
facet normal -1 0 -0
  outer loop
    vertex -0.12 0.03100000000000001 0.001155160154674432
    vertex -0.12 0.03125000000000001 0.0007009618943233495
    vertex -0.12 0.03075000000000001 0.0008297575452595168
  endloop
endfacet
facet normal -1 0 0
  outer loop
    vertex -0.12 0.02875 0.0004118271434333529
    vertex -0.12 0.0285093083919345 0.0008645876821969118
    vertex -0.12 0.02900317492744145 0.0007371270620861857
  endloop
endfacet
facet normal -1 0 0
  outer loop
    vertex -0.12 0.03225 0.00156698729810778
    vertex -0.12 0.0325 0.002
    vertex -0.12 0.03275 0.001694100648860986
  endloop
endfacet
facet normal -1 0 0
  outer loop
    vertex -0.12 0.03275 0.001299038105676658
    vertex -0.12 0.03250395689909397 0.0008368377435917628
    vertex -0.12 0.03227116704527066 0.00115376434173157
  endloop
endfacet
facet normal -1 0 0
  outer loop
    vertex -0.12 0.03025 0.0007009618943233426
    vertex -0.12 0.03050000000000001 0.001158691081084241
    vertex -0.12 0.03075000000000001 0.0008297575452595168
  endloop
endfacet
facet normal -1 0 0
  outer loop
    vertex -0.12 0.03 0
    vertex -0.12 0.02978939747163632 0.0004385583085549408
    vertex -0.12 0.03025000000000001 0.0003058993511390141
  endloop
endfacet
facet normal -1 0 -0
  outer loop
    vertex -0.12 0.02974133560052467 0.001590809860506664
    vertex -0.12 0.02994801360314799 0.001128611061396792
    vertex -0.12 0.02948786984073453 0.001261518755694022
  endloop
endfacet
facet normal -1 0 -0
  outer loop
    vertex -0.12 0.0287408072566182 0.001593436316439759
    vertex -0.12 0.029 0.001133974596215565
    vertex -0.12 0.02850840913803228 0.001273145782896594
  endloop
endfacet
facet normal -1 0 0
  outer loop
    vertex -0.12 0.029 0.001133974596215565
    vertex -0.12 0.02925000000000001 0.001588172856566649
    vertex -0.12 0.02948786984073453 0.001261518755694022
  endloop
endfacet
facet normal -1 0 -0
  outer loop
    vertex -0.12 0.033 0.002
    vertex -0.12 0.03319484353970916 0.001577382498887571
    vertex -0.12 0.03275 0.001694100648860986
  endloop
endfacet
facet normal -1 0 0
  outer loop
    vertex -0.12 0.03075 0.0004330127018922182
    vertex -0.12 0.0305 0
    vertex -0.12 0.03025000000000001 0.0003058993511390141
  endloop
endfacet
facet normal -1 0 0
  outer loop
    vertex -0.12 0.0295 0.0008660254037844372
    vertex -0.12 0.02925656624527272 0.0004092204848006607
    vertex -0.12 0.02900317492744145 0.0007371270620861857
  endloop
endfacet
facet normal -1 0 0
  outer loop
    vertex -0.12 0.03171060252836369 0.0004385583085549429
    vertex -0.12 0.0315 0
    vertex -0.12 0.03125000000000001 0.0003058993511390181
  endloop
endfacet
facet normal -1 0 0
  outer loop
    vertex -0.12 0.02694524611133491 0.0008728958502837716
    vertex -0.12 0.02675 0.0004330127018922138
    vertex -0.12 0.0264148969472266 0.000796734134929472
  endloop
endfacet
facet normal -1 0 0
  outer loop
    vertex -0.12 0.035 0
    vertex -0.12 0.0345 0
    vertex -0.12 0.03463397459621557 0.0003660254037844385
  endloop
endfacet
facet normal -1 0 0
  outer loop
    vertex -0.12 0.0345 0.002
    vertex -0.12 0.035 0.002
    vertex -0.12 0.03464377482264826 0.001667272063737203
  endloop
endfacet
facet normal -1 0 0
  outer loop
    vertex -0.12 0.0255 0
    vertex -0.12 0.025 0
    vertex -0.12 0.02536602540378443 0.0003660254037844404
  endloop
endfacet
facet normal -1 0 -0
  outer loop
    vertex -0.12 0.035 0.002
    vertex -0.12 0.035 0.0015
    vertex -0.12 0.03464377482264826 0.001667272063737203
  endloop
endfacet
facet normal -1 0 -0
  outer loop
    vertex -0.12 0.035 0.0004999999999999998
    vertex -0.12 0.035 0
    vertex -0.12 0.03463397459621557 0.0003660254037844385
  endloop
endfacet
facet normal -1 0 0
  outer loop
    vertex -0.12 0.025 0.002
    vertex -0.12 0.0255 0.002
    vertex -0.12 0.02536602540378443 0.001633974596215564
  endloop
endfacet
facet normal -1 0 0
  outer loop
    vertex -0.12 0.025 0.0015
    vertex -0.12 0.025 0.002
    vertex -0.12 0.02536602540378443 0.001633974596215564
  endloop
endfacet
facet normal -1 0 0
  outer loop
    vertex -0.12 0.025 0
    vertex -0.12 0.025 0.0004999999999999998
    vertex -0.12 0.02536602540378443 0.0003660254037844404
  endloop
endfacet
facet normal -1 -0 0
  outer loop
    vertex -0.12 0.0285093083919345 0.0008645876821969118
    vertex -0.12 0.02797731746299401 0.000852341147203162
    vertex -0.12 0.02816236942812285 0.001188976732879907
  endloop
endfacet
facet normal -1 -0 0
  outer loop
    vertex -0.12 0.0335 0.0008660254037844389
    vertex -0.12 0.03297790446433805 0.0008472799306722515
    vertex -0.12 0.03318614496370863 0.001175461886517311
  endloop
endfacet
facet normal -1 0 0
  outer loop
    vertex -0.12 0.03172731746299402 0.001580083066954092
    vertex -0.12 0.03225 0.00156698729810778
    vertex -0.12 0.03188169969788593 0.001191812736525917
  endloop
endfacet
facet normal -1 0 -0
  outer loop
    vertex -0.12 0.02850840913803228 0.001273145782896594
    vertex -0.12 0.0285093083919345 0.0008645876821969118
    vertex -0.12 0.02816236942812285 0.001188976732879907
  endloop
endfacet
facet normal -1 0 0
  outer loop
    vertex -0.12 0.03350797681449594 0.001287583493565635
    vertex -0.12 0.0335 0.0008660254037844389
    vertex -0.12 0.03318614496370863 0.001175461886517311
  endloop
endfacet
facet normal -1 0 -0
  outer loop
    vertex -0.12 0.03225 0.00156698729810778
    vertex -0.12 0.03227116704527066 0.00115376434173157
    vertex -0.12 0.03188169969788593 0.001191812736525917
  endloop
endfacet
facet normal -1 0 0
  outer loop
    vertex -0.12 0.03422777578366417 0.001605544275779458
    vertex -0.12 0.0345 0.002
    vertex -0.12 0.03464377482264826 0.001667272063737203
  endloop
endfacet
facet normal -1 0 -0
  outer loop
    vertex -0.12 0.0255 0.002
    vertex -0.12 0.02576563112196086 0.001591235059190423
    vertex -0.12 0.02536602540378443 0.001633974596215564
  endloop
endfacet
facet normal -1 0 0
  outer loop
    vertex -0.12 0.03457949121243644 0.0007493615068939653
    vertex -0.12 0.035 0.0004999999999999998
    vertex -0.12 0.03463397459621557 0.0003660254037844385
  endloop
endfacet
facet normal -1 0 0
  outer loop
    vertex -0.12 0.025 0.0004999999999999998
    vertex -0.12 0.02550691513150918 0.0007707036465444577
    vertex -0.12 0.02536602540378443 0.0003660254037844404
  endloop
endfacet
facet normal -1 0 0
  outer loop
    vertex -0.12 0.0264148969472266 0.000796734134929472
    vertex -0.12 0.02625 0.0004330127018922197
    vertex -0.12 0.02598552514987783 0.0007039673229678801
  endloop
endfacet
facet normal -1 0 0
  outer loop
    vertex -0.12 0.03050000000000001 0.001158691081084241
    vertex -0.12 0.03100000000000001 0.001155160154674432
    vertex -0.12 0.03075000000000001 0.0008297575452595168
  endloop
endfacet
facet normal -1 0 0
  outer loop
    vertex -0.12 0.0315 0
    vertex -0.12 0.031 0
    vertex -0.12 0.03125000000000001 0.0003058993511390181
  endloop
endfacet
facet normal -1 0 0
  outer loop
    vertex -0.12 0.02925000000000001 0.001588172856566649
    vertex -0.12 0.02974133560052467 0.001590809860506664
    vertex -0.12 0.02948786984073453 0.001261518755694022
  endloop
endfacet
facet normal -1 0 0
  outer loop
    vertex -0.12 0.02925656624527272 0.0004092204848006607
    vertex -0.12 0.02875 0.0004118271434333529
    vertex -0.12 0.02900317492744145 0.0007371270620861857
  endloop
endfacet
facet normal -1 0 0
  outer loop
    vertex -0.12 0.027 0.002
    vertex -0.12 0.0275 0.002
    vertex -0.12 0.02729189654422118 0.001667956277510624
  endloop
endfacet
facet normal -1 0 0
  outer loop
    vertex -0.12 0.0275 0.002
    vertex -0.12 0.028 0.002
    vertex -0.12 0.02774112759843844 0.001711958362035136
  endloop
endfacet
facet normal -1 0 0
  outer loop
    vertex -0.12 0.0325 0.002
    vertex -0.12 0.033 0.002
    vertex -0.12 0.03275 0.001694100648860986
  endloop
endfacet
facet normal -1 0 0
  outer loop
    vertex -0.12 0.0305 0
    vertex -0.12 0.03 0
    vertex -0.12 0.03025000000000001 0.0003058993511390141
  endloop
endfacet
facet normal -1 0 0
  outer loop
    vertex -0.12 0.03319484353970916 0.001577382498887571
    vertex -0.12 0.03375 0.00156698729810778
    vertex -0.12 0.03350797681449594 0.001287583493565635
  endloop
endfacet
facet normal -1 0 0
  outer loop
    vertex -0.12 0.02819484353970915 0.001577382498887573
    vertex -0.12 0.0287408072566182 0.001593436316439759
    vertex -0.12 0.02850840913803228 0.001273145782896594
  endloop
endfacet
facet normal -1 -0 0
  outer loop
    vertex -0.12 0.03250395689909397 0.0008368377435917628
    vertex -0.12 0.03203030763983653 0.0008170885256044667
    vertex -0.12 0.03227116704527066 0.00115376434173157
  endloop
endfacet
facet normal -1 -0 0
  outer loop
    vertex -0.12 0.02625 0.0004330127018922197
    vertex -0.12 0.02575581367065336 0.0003854115352577017
    vertex -0.12 0.02598552514987783 0.0007039673229678801
  endloop
endfacet
facet normal -1 0 0
  outer loop
    vertex -0.12 0.02675 0.0004330127018922138
    vertex -0.12 0.02625 0.0004330127018922197
    vertex -0.12 0.0264148969472266 0.000796734134929472
  endloop
endfacet
facet normal -1 0 0
  outer loop
    vertex -0.12 0.02729189654422118 0.001667956277510624
    vertex -0.12 0.0275 0.002
    vertex -0.12 0.02774112759843844 0.001711958362035136
  endloop
endfacet
facet normal -1 -0 0
  outer loop
    vertex -0.12 0.035 0.0015
    vertex -0.12 0.03449109832957712 0.001230816042906558
    vertex -0.12 0.03464377482264826 0.001667272063737203
  endloop
endfacet
facet normal -1 0 0
  outer loop
    vertex -0.12 0.02542656684612642 0.001270601937522284
    vertex -0.12 0.025 0.0015
    vertex -0.12 0.02536602540378443 0.001633974596215564
  endloop
endfacet
facet normal -1 0 0
  outer loop
    vertex -0.12 0.0345 0
    vertex -0.12 0.03424788131535957 0.0004233860225279162
    vertex -0.12 0.03463397459621557 0.0003660254037844385
  endloop
endfacet
facet normal -1 0 0
  outer loop
    vertex -0.12 0.02575581367065336 0.0003854115352577017
    vertex -0.12 0.0255 0
    vertex -0.12 0.02536602540378443 0.0003660254037844404
  endloop
endfacet
facet normal -1 0 0
  outer loop
    vertex -0.12 0.03350797681449594 0.001287583493565635
    vertex -0.12 0.03375 0.00156698729810778
    vertex -0.12 0.03392855457946989 0.001231331770274869
  endloop
endfacet
facet normal -1 0 0
  outer loop
    vertex -0.12 0.02978939747163632 0.0004385583085549408
    vertex -0.12 0.0295 0.0008660254037844372
    vertex -0.12 0.02987185276869608 0.0007835391670148781
  endloop
endfacet
facet normal -1 0 0
  outer loop
    vertex -0.12 0.03203030763983653 0.0008170885256044667
    vertex -0.12 0.03171060252836369 0.0004385583085549429
    vertex -0.12 0.03163599559256073 0.0008075768517319792
  endloop
endfacet
facet normal -1 0 -0
  outer loop
    vertex -0.12 0.03188169969788593 0.001191812736525917
    vertex -0.12 0.03203030763983653 0.0008170885256044667
    vertex -0.12 0.03163599559256073 0.0008075768517319792
  endloop
endfacet
facet normal -1 0 0
  outer loop
    vertex -0.12 0.02654413557202466 0.001168596906261848
    vertex -0.12 0.02678939747163632 0.001561441691445054
    vertex -0.12 0.02688609522203588 0.00122046349259878
  endloop
endfacet
facet normal -1 0 0
  outer loop
    vertex -0.12 0.03125000000000001 0.0007009618943233495
    vertex -0.12 0.03150000000000001 0.001133974596215569
    vertex -0.12 0.03163599559256073 0.0008075768517319792
  endloop
endfacet
facet normal -1 0 0
  outer loop
    vertex -0.12 0.0272344079801428 0.001287150712002181
    vertex -0.12 0.02694524611133491 0.0008728958502837716
    vertex -0.12 0.02688609522203588 0.00122046349259878
  endloop
endfacet
facet normal -1 0 0
  outer loop
    vertex -0.12 0.03150000000000001 0.001133974596215569
    vertex -0.12 0.03188169969788593 0.001191812736525917
    vertex -0.12 0.03163599559256073 0.0008075768517319792
  endloop
endfacet
facet normal -1 0 0
  outer loop
    vertex -0.12 0.03297790446433805 0.0008472799306722515
    vertex -0.12 0.03275 0.001299038105676658
    vertex -0.12 0.03318614496370863 0.001175461886517311
  endloop
endfacet
facet normal -1 0 0
  outer loop
    vertex -0.12 0.02797731746299401 0.000852341147203162
    vertex -0.12 0.02771889790826184 0.001314453033777482
    vertex -0.12 0.02816236942812285 0.001188976732879907
  endloop
endfacet
facet normal -1 0 -0
  outer loop
    vertex -0.12 0.02994801360314799 0.001128611061396792
    vertex -0.12 0.03025 0.0007009618943233426
    vertex -0.12 0.02987185276869608 0.0007835391670148781
  endloop
endfacet
facet normal -1 0 0
  outer loop
    vertex -0.12 0.03150000000000001 0.001133974596215569
    vertex -0.12 0.03172731746299402 0.001580083066954092
    vertex -0.12 0.03188169969788593 0.001191812736525917
  endloop
endfacet
facet normal -1 0 0
  outer loop
    vertex -0.12 0.03449109832957712 0.001230816042906558
    vertex -0.12 0.03422777578366417 0.001605544275779458
    vertex -0.12 0.03464377482264826 0.001667272063737203
  endloop
endfacet
facet normal -1 0 -0
  outer loop
    vertex -0.12 0.02550691513150918 0.0007707036465444577
    vertex -0.12 0.02575581367065336 0.0003854115352577017
    vertex -0.12 0.02536602540378443 0.0003660254037844404
  endloop
endfacet
facet normal -1 -0 0
  outer loop
    vertex -0.12 0.02576563112196086 0.001591235059190423
    vertex -0.12 0.02542656684612642 0.001270601937522284
    vertex -0.12 0.02536602540378443 0.001633974596215564
  endloop
endfacet
facet normal -1 0 0
  outer loop
    vertex -0.12 0.03424788131535957 0.0004233860225279162
    vertex -0.12 0.03457949121243644 0.0007493615068939653
    vertex -0.12 0.03463397459621557 0.0003660254037844385
  endloop
endfacet
facet normal -1 0 0
  outer loop
    vertex -0.12 0.03375 0.00156698729810778
    vertex -0.12 0.03422777578366417 0.001605544275779458
    vertex -0.12 0.03392855457946989 0.001231331770274869
  endloop
endfacet
facet normal -1 0 -0
  outer loop
    vertex -0.12 0.02819484353970915 0.001577382498887573
    vertex -0.12 0.02850840913803228 0.001273145782896594
    vertex -0.12 0.02816236942812285 0.001188976732879907
  endloop
endfacet
facet normal -1 0 -0
  outer loop
    vertex -0.12 0.03319484353970916 0.001577382498887571
    vertex -0.12 0.03350797681449594 0.001287583493565635
    vertex -0.12 0.03318614496370863 0.001175461886517311
  endloop
endfacet
facet normal -1 -0 0
  outer loop
    vertex -0.12 0.03227116704527066 0.00115376434173157
    vertex -0.12 0.03203030763983653 0.0008170885256044667
    vertex -0.12 0.03188169969788593 0.001191812736525917
  endloop
endfacet
endsolid Created by Gmsh
