solid Created by Gmsh
facet normal 1 0 0
  outer loop
    vertex 0.2 0.05978119421547885 0.04507768473597525
    vertex 0.2 0.05371011679030883 0.04282350546308167
    vertex 0.2 0.05799059099537182 0.03830225383883117
  endloop
endfacet
facet normal 1 0 0
  outer loop
    vertex 0.2 0.05799059099537182 0.03830225383883117
    vertex 0.2 0.06267214436019561 0.04040846943723846
    vertex 0.2 0.05978119421547885 0.04507768473597525
  endloop
endfacet
facet normal 1 0 0
  outer loop
    vertex 0.2 0.04836875687599934 0.05908887214519
    vertex 0.2 0.04762491786939765 0.06562799708426845
    vertex 0.2 0.04353874697457025 0.06337650528833083
  endloop
endfacet
facet normal 1 0 0
  outer loop
    vertex 0.2 0.05224621729369334 0.06454344297076921
    vertex 0.2 0.04762491786939765 0.06562799708426845
    vertex 0.2 0.04836875687599934 0.05908887214519
  endloop
endfacet
facet normal 1 0 0
  outer loop
    vertex 0.2 0.04353874697457025 0.06337650528833083
    vertex 0.2 0.04193184156898203 0.05851330863208774
    vertex 0.2 0.04836875687599934 0.05908887214519
  endloop
endfacet
facet normal 1 0 0
  outer loop
    vertex 0.2 0.04399709872110763 0.05369349452706713
    vertex 0.2 0.0390715785820187 0.04984386012461017
    vertex 0.2 0.04436652213942183 0.04850006391834264
  endloop
endfacet
facet normal 1 0 0
  outer loop
    vertex 0.2 0.04399709872110763 0.05369349452706713
    vertex 0.2 0.03950984024875727 0.05483185150482522
    vertex 0.2 0.0390715785820187 0.04984386012461017
  endloop
endfacet
facet normal 1 0 0
  outer loop
    vertex 0.2 0.04454405543143726 0.04289349808557731
    vertex 0.2 0.04098343285647031 0.03874775710861082
    vertex 0.2 0.04613201989128838 0.03642134075328024
  endloop
endfacet
facet normal 1 0 -0
  outer loop
    vertex 0.2 0.04613201989128838 0.03642134075328024
    vertex 0.2 0.04909246053545334 0.04120600384555709
    vertex 0.2 0.04454405543143726 0.04289349808557731
  endloop
endfacet
facet normal 1 0 0
  outer loop
    vertex 0.2 0.05371011679030883 0.04282350546308167
    vertex 0.2 0.05190782453577506 0.03771466072718755
    vertex 0.2 0.05799059099537182 0.03830225383883117
  endloop
endfacet
facet normal 1 0 0
  outer loop
    vertex 0.2 0.04836875687599934 0.05908887214519
    vertex 0.2 0.05409789803147551 0.0598815907841363
    vertex 0.2 0.05224621729369334 0.06454344297076921
  endloop
endfacet
facet normal 1 0 0
  outer loop
    vertex 0.2 0.04132232521764882 0.03198062264195163
    vertex 0.2 0.04098343285647031 0.03874775710861082
    vertex 0.2 0.03639654524458161 0.03533896256340348
  endloop
endfacet
facet normal 1 0 0
  outer loop
    vertex 0.2 0.04613201989128838 0.03642134075328024
    vertex 0.2 0.04098343285647031 0.03874775710861082
    vertex 0.2 0.04132232521764882 0.03198062264195163
  endloop
endfacet
facet normal 1 0 0
  outer loop
    vertex 0.2 0.04836875687599934 0.05908887214519
    vertex 0.2 0.04193184156898203 0.05851330863208774
    vertex 0.2 0.04399709872110763 0.05369349452706713
  endloop
endfacet
facet normal 1 0 0
  outer loop
    vertex 0.2 0.04098343285647031 0.03874775710861082
    vertex 0.2 0.04037083808865679 0.0445592533666174
    vertex 0.2 0.03693408794449737 0.04041971716574115
  endloop
endfacet
facet normal 1 0 0
  outer loop
    vertex 0.2 0.05978119421547885 0.04507768473597525
    vertex 0.2 0.06267214436019561 0.04040846943723846
    vertex 0.2 0.06493005572615781 0.04414038492245968
  endloop
endfacet
facet normal 1 0 0
  outer loop
    vertex 0.2 0.054439257788903 0.0488388484800264
    vertex 0.2 0.05371011679030883 0.04282350546308167
    vertex 0.2 0.05978119421547885 0.04507768473597525
  endloop
endfacet
facet normal 1 0 0
  outer loop
    vertex 0.2 0.04921611049870099 0.0519061398167918
    vertex 0.2 0.04836875687599934 0.05908887214519
    vertex 0.2 0.04399709872110763 0.05369349452706713
  endloop
endfacet
facet normal 1 0 0
  outer loop
    vertex 0.2 0.05 0.07000000000000001
    vertex 0.2 0.05224621729369334 0.06454344297076921
    vertex 0.2 0.05589510348821813 0.06911145611572281
  endloop
endfacet
facet normal 1 0 -0
  outer loop
    vertex 0.2 0.03267949192431123 0.04000000000000001
    vertex 0.2 0.03584361080838717 0.04485506841659719
    vertex 0.2 0.03050144175636353 0.04554958132087372
  endloop
endfacet
facet normal 1 0 0
  outer loop
    vertex 0.2 0.06994407594362362 0.05149460187172829
    vertex 0.2 0.06457277827056926 0.04890792124232544
    vertex 0.2 0.06949855824363643 0.04554958132087353
  endloop
endfacet
facet normal 1 -0 0
  outer loop
    vertex 0.2 0.03873359883872757 0.06652477548631991
    vertex 0.2 0.04353874697457025 0.06337650528833083
    vertex 0.2 0.04410489651178192 0.06911145611572282
  endloop
endfacet
facet normal 1 0 0
  outer loop
    vertex 0.2 0.0636034547554183 0.03533896256340339
    vertex 0.2 0.05799059099537182 0.03830225383883117
    vertex 0.2 0.05867767478235107 0.03198062264195158
  endloop
endfacet
facet normal 1 0 0
  outer loop
    vertex 0.2 0.0300559240563764 0.0514946018717285
    vertex 0.2 0.03504349501428869 0.05339517326991364
    vertex 0.2 0.03138252502711593 0.05730682048732792
  endloop
endfacet
facet normal 1 0 0
  outer loop
    vertex 0.2 0.04701915467647647 0.03022338347549744
    vertex 0.2 0.04613201989128838 0.03642134075328024
    vertex 0.2 0.04132232521764882 0.03198062264195163
  endloop
endfacet
facet normal 1 0 0
  outer loop
    vertex 0.2 0.06126640116127251 0.06652477548631985
    vertex 0.2 0.05996365627366615 0.06095211964453867
    vertex 0.2 0.06563662964936066 0.06246979603717458
  endloop
endfacet
facet normal 1 0 0
  outer loop
    vertex 0.2 0.04921611049870099 0.0519061398167918
    vertex 0.2 0.04399709872110763 0.05369349452706713
    vertex 0.2 0.04436652213942183 0.04850006391834264
  endloop
endfacet
facet normal 1 0 0
  outer loop
    vertex 0.2 0.04436652213942183 0.04850006391834264
    vertex 0.2 0.04454405543143726 0.04289349808557731
    vertex 0.2 0.04916828602845717 0.04617701419865872
  endloop
endfacet
facet normal 1 -0 0
  outer loop
    vertex 0.2 0.04916828602845717 0.04617701419865872
    vertex 0.2 0.05371011679030883 0.04282350546308167
    vertex 0.2 0.054439257788903 0.0488388484800264
  endloop
endfacet
facet normal 1 0 0
  outer loop
    vertex 0.2 0.04921611049870099 0.0519061398167918
    vertex 0.2 0.04436652213942183 0.04850006391834264
    vertex 0.2 0.04916828602845717 0.04617701419865872
  endloop
endfacet
facet normal 1 0 0
  outer loop
    vertex 0.2 0.05190782453577506 0.03771466072718755
    vertex 0.2 0.04909246053545334 0.04120600384555709
    vertex 0.2 0.04613201989128838 0.03642134075328024
  endloop
endfacet
facet normal 1 0 0
  outer loop
    vertex 0.2 0.04921611049870099 0.0519061398167918
    vertex 0.2 0.04916828602845717 0.04617701419865872
    vertex 0.2 0.054439257788903 0.0488388484800264
  endloop
endfacet
facet normal 1 0 0
  outer loop
    vertex 0.2 0.0541429260910207 0.05447698779125056
    vertex 0.2 0.04836875687599934 0.05908887214519
    vertex 0.2 0.04921611049870099 0.0519061398167918
  endloop
endfacet
facet normal 1 0 0
  outer loop
    vertex 0.2 0.0541429260910207 0.05447698779125056
    vertex 0.2 0.04921611049870099 0.0519061398167918
    vertex 0.2 0.054439257788903 0.0488388484800264
  endloop
endfacet
facet normal 1 0 0
  outer loop
    vertex 0.2 0.05947339304731986 0.05173168361040372
    vertex 0.2 0.0541429260910207 0.05447698779125056
    vertex 0.2 0.054439257788903 0.0488388484800264
  endloop
endfacet
facet normal 1 0 0
  outer loop
    vertex 0.2 0.05947339304731986 0.05173168361040372
    vertex 0.2 0.054439257788903 0.0488388484800264
    vertex 0.2 0.05978119421547885 0.04507768473597525
  endloop
endfacet
facet normal 1 0 0
  outer loop
    vertex 0.2 0.04454405543143726 0.04289349808557731
    vertex 0.2 0.04037083808865679 0.0445592533666174
    vertex 0.2 0.04098343285647031 0.03874775710861082
  endloop
endfacet
facet normal 1 0 0
  outer loop
    vertex 0.2 0.06994407594362362 0.05149460187172829
    vertex 0.2 0.06416958879354537 0.05406192214376773
    vertex 0.2 0.06457277827056926 0.04890792124232544
  endloop
endfacet
facet normal 1 0 0
  outer loop
    vertex 0.2 0.06861747497288415 0.05730682048732776
    vertex 0.2 0.06416958879354537 0.05406192214376773
    vertex 0.2 0.06994407594362362 0.05149460187172829
  endloop
endfacet
facet normal 1 0 0
  outer loop
    vertex 0.2 0.06457277827056926 0.04890792124232544
    vertex 0.2 0.05947339304731986 0.05173168361040372
    vertex 0.2 0.05978119421547885 0.04507768473597525
  endloop
endfacet
facet normal 1 0 0
  outer loop
    vertex 0.2 0.05371011679030883 0.04282350546308167
    vertex 0.2 0.04909246053545334 0.04120600384555709
    vertex 0.2 0.05190782453577506 0.03771466072718755
  endloop
endfacet
facet normal 1 -0 0
  outer loop
    vertex 0.2 0.04613201989128838 0.03642134075328024
    vertex 0.2 0.05015327132306917 0.03360026192335366
    vertex 0.2 0.05190782453577506 0.03771466072718755
  endloop
endfacet
facet normal 1 0 0
  outer loop
    vertex 0.2 0.04916828602845717 0.04617701419865872
    vertex 0.2 0.04909246053545334 0.04120600384555709
    vertex 0.2 0.05371011679030883 0.04282350546308167
  endloop
endfacet
facet normal 1 -0 0
  outer loop
    vertex 0.2 0.05409789803147551 0.0598815907841363
    vertex 0.2 0.05882601774967473 0.05646644936524113
    vertex 0.2 0.05996365627366615 0.06095211964453867
  endloop
endfacet
facet normal 1 0 0
  outer loop
    vertex 0.2 0.05996365627366615 0.06095211964453867
    vertex 0.2 0.0567695979974778 0.06427346033710563
    vertex 0.2 0.05409789803147551 0.0598815907841363
  endloop
endfacet
facet normal 1 0 0
  outer loop
    vertex 0.2 0.03699739263932328 0.05821594479178914
    vertex 0.2 0.04193184156898203 0.05851330863208774
    vertex 0.2 0.03917921395413442 0.06187318353532416
  endloop
endfacet
facet normal 1 0 -0
  outer loop
    vertex 0.2 0.03950984024875727 0.05483185150482522
    vertex 0.2 0.04193184156898203 0.05851330863208774
    vertex 0.2 0.03699739263932328 0.05821594479178914
  endloop
endfacet
facet normal 1 0 0
  outer loop
    vertex 0.2 0.06457277827056926 0.04890792124232544
    vertex 0.2 0.06416958879354537 0.05406192214376773
    vertex 0.2 0.05947339304731986 0.05173168361040372
  endloop
endfacet
facet normal 1 0 0
  outer loop
    vertex 0.2 0.06416958879354537 0.05406192214376773
    vertex 0.2 0.06366113257850783 0.05844417788904005
    vertex 0.2 0.05882601774967473 0.05646644936524113
  endloop
endfacet
facet normal 1 0 0
  outer loop
    vertex 0.2 0.06416958879354537 0.05406192214376773
    vertex 0.2 0.05882601774967473 0.05646644936524113
    vertex 0.2 0.05947339304731986 0.05173168361040372
  endloop
endfacet
facet normal 1 0 0
  outer loop
    vertex 0.2 0.06457277827056926 0.04890792124232544
    vertex 0.2 0.05978119421547885 0.04507768473597525
    vertex 0.2 0.06493005572615781 0.04414038492245968
  endloop
endfacet
facet normal 1 -0 0
  outer loop
    vertex 0.2 0.04454405543143726 0.04289349808557731
    vertex 0.2 0.04909246053545334 0.04120600384555709
    vertex 0.2 0.04916828602845717 0.04617701419865872
  endloop
endfacet
facet normal 1 0 -0
  outer loop
    vertex 0.2 0.03693408794449737 0.04041971716574115
    vertex 0.2 0.04037083808865679 0.0445592533666174
    vertex 0.2 0.03584361080838717 0.04485506841659719
  endloop
endfacet
facet normal 1 -0 0
  outer loop
    vertex 0.2 0.05190782453577506 0.03771466072718755
    vertex 0.2 0.05469932607559278 0.03419693345371344
    vertex 0.2 0.05799059099537182 0.03830225383883117
  endloop
endfacet
facet normal 1 0 0
  outer loop
    vertex 0.2 0.0541429260910207 0.05447698779125056
    vertex 0.2 0.05409789803147551 0.0598815907841363
    vertex 0.2 0.04836875687599934 0.05908887214519
  endloop
endfacet
facet normal 1 0 -0
  outer loop
    vertex 0.2 0.0390715785820187 0.04984386012461017
    vertex 0.2 0.03950984024875727 0.05483185150482522
    vertex 0.2 0.03504349501428869 0.05339517326991364
  endloop
endfacet
facet normal 1 0 0
  outer loop
    vertex 0.2 0.06457277827056926 0.04890792124232544
    vertex 0.2 0.06493005572615781 0.04414038492245968
    vertex 0.2 0.06949855824363643 0.04554958132087353
  endloop
endfacet
facet normal 1 0 0
  outer loop
    vertex 0.2 0.06949855824363643 0.04554958132087353
    vertex 0.2 0.06493005572615781 0.04414038492245968
    vertex 0.2 0.06732050807568871 0.03999999999999987
  endloop
endfacet
facet normal 1 0 0
  outer loop
    vertex 0.2 0.06732050807568871 0.03999999999999987
    vertex 0.2 0.06267214436019561 0.04040846943723846
    vertex 0.2 0.0636034547554183 0.03533896256340339
  endloop
endfacet
facet normal 1 0 -0
  outer loop
    vertex 0.2 0.03504349501428869 0.05339517326991364
    vertex 0.2 0.03699739263932328 0.05821594479178914
    vertex 0.2 0.03138252502711593 0.05730682048732792
  endloop
endfacet
facet normal 1 -0 0
  outer loop
    vertex 0.2 0.05224621729369334 0.06454344297076921
    vertex 0.2 0.0567695979974778 0.06427346033710563
    vertex 0.2 0.05589510348821813 0.06911145611572281
  endloop
endfacet
facet normal 1 0 0
  outer loop
    vertex 0.2 0.06126640116127251 0.06652477548631985
    vertex 0.2 0.0567695979974778 0.06427346033710563
    vertex 0.2 0.05996365627366615 0.06095211964453867
  endloop
endfacet
facet normal 1 0 0
  outer loop
    vertex 0.2 0.0636034547554183 0.03533896256340339
    vertex 0.2 0.06267214436019561 0.04040846943723846
    vertex 0.2 0.05799059099537182 0.03830225383883117
  endloop
endfacet
facet normal 1 0 0
  outer loop
    vertex 0.2 0.03138252502711593 0.05730682048732792
    vertex 0.2 0.03699739263932328 0.05821594479178914
    vertex 0.2 0.03436337035063941 0.06246979603717469
  endloop
endfacet
facet normal 1 0 -0
  outer loop
    vertex 0.2 0.03050144175636353 0.04554958132087372
    vertex 0.2 0.03409728318185615 0.04893747748866308
    vertex 0.2 0.0300559240563764 0.0514946018717285
  endloop
endfacet
facet normal 1 0 0
  outer loop
    vertex 0.2 0.04353874697457025 0.06337650528833083
    vertex 0.2 0.04762491786939765 0.06562799708426845
    vertex 0.2 0.04410489651178192 0.06911145611572282
  endloop
endfacet
facet normal 1 -0 0
  outer loop
    vertex 0.2 0.0300559240563764 0.0514946018717285
    vertex 0.2 0.03409728318185615 0.04893747748866308
    vertex 0.2 0.03504349501428869 0.05339517326991364
  endloop
endfacet
facet normal 1 -0 0
  outer loop
    vertex 0.2 0.04410489651178192 0.06911145611572282
    vertex 0.2 0.04762491786939765 0.06562799708426845
    vertex 0.2 0.05 0.07000000000000001
  endloop
endfacet
facet normal 1 0 0
  outer loop
    vertex 0.2 0.03584361080838717 0.04485506841659719
    vertex 0.2 0.03409728318185615 0.04893747748866308
    vertex 0.2 0.03050144175636353 0.04554958132087372
  endloop
endfacet
facet normal 1 0 0
  outer loop
    vertex 0.2 0.05 0.07000000000000001
    vertex 0.2 0.04762491786939765 0.06562799708426845
    vertex 0.2 0.05224621729369334 0.06454344297076921
  endloop
endfacet
facet normal 1 0 0
  outer loop
    vertex 0.2 0.05589510348821813 0.06911145611572281
    vertex 0.2 0.0567695979974778 0.06427346033710563
    vertex 0.2 0.06126640116127251 0.06652477548631985
  endloop
endfacet
facet normal 1 0 0
  outer loop
    vertex 0.2 0.03873359883872757 0.06652477548631991
    vertex 0.2 0.03917921395413442 0.06187318353532416
    vertex 0.2 0.04353874697457025 0.06337650528833083
  endloop
endfacet
facet normal 1 -0 0
  outer loop
    vertex 0.2 0.03436337035063941 0.06246979603717469
    vertex 0.2 0.03917921395413442 0.06187318353532416
    vertex 0.2 0.03873359883872757 0.06652477548631991
  endloop
endfacet
facet normal 1 0 -0
  outer loop
    vertex 0.2 0.04701915467647647 0.03022338347549744
    vertex 0.2 0.05015327132306917 0.03360026192335366
    vertex 0.2 0.04613201989128838 0.03642134075328024
  endloop
endfacet
facet normal 1 0 -0
  outer loop
    vertex 0.2 0.0541429260910207 0.05447698779125056
    vertex 0.2 0.05882601774967473 0.05646644936524113
    vertex 0.2 0.05409789803147551 0.0598815907841363
  endloop
endfacet
facet normal 1 0 0
  outer loop
    vertex 0.2 0.06563662964936066 0.06246979603717458
    vertex 0.2 0.06366113257850783 0.05844417788904005
    vertex 0.2 0.06861747497288415 0.05730682048732776
  endloop
endfacet
facet normal 1 0 0
  outer loop
    vertex 0.2 0.05799059099537182 0.03830225383883117
    vertex 0.2 0.05469932607559278 0.03419693345371344
    vertex 0.2 0.05867767478235107 0.03198062264195158
  endloop
endfacet
facet normal 1 0 -0
  outer loop
    vertex 0.2 0.03639654524458161 0.03533896256340348
    vertex 0.2 0.03693408794449737 0.04041971716574115
    vertex 0.2 0.03267949192431123 0.04000000000000001
  endloop
endfacet
facet normal 1 0 0
  outer loop
    vertex 0.2 0.04436652213942183 0.04850006391834264
    vertex 0.2 0.04037083808865679 0.0445592533666174
    vertex 0.2 0.04454405543143726 0.04289349808557731
  endloop
endfacet
facet normal 1 0 0
  outer loop
    vertex 0.2 0.05298084532352342 0.03022338347549742
    vertex 0.2 0.05015327132306917 0.03360026192335366
    vertex 0.2 0.04701915467647647 0.03022338347549744
  endloop
endfacet
facet normal 1 0 0
  outer loop
    vertex 0.2 0.05947339304731986 0.05173168361040372
    vertex 0.2 0.05882601774967473 0.05646644936524113
    vertex 0.2 0.0541429260910207 0.05447698779125056
  endloop
endfacet
facet normal 1 -0 0
  outer loop
    vertex 0.2 0.05996365627366615 0.06095211964453867
    vertex 0.2 0.06366113257850783 0.05844417788904005
    vertex 0.2 0.06563662964936066 0.06246979603717458
  endloop
endfacet
facet normal 1 0 0
  outer loop
    vertex 0.2 0.05867767478235107 0.03198062264195158
    vertex 0.2 0.05469932607559278 0.03419693345371344
    vertex 0.2 0.05298084532352342 0.03022338347549742
  endloop
endfacet
facet normal 1 0 0
  outer loop
    vertex 0.2 0.03267949192431123 0.04000000000000001
    vertex 0.2 0.03693408794449737 0.04041971716574115
    vertex 0.2 0.03584361080838717 0.04485506841659719
  endloop
endfacet
facet normal 1 0 -0
  outer loop
    vertex 0.2 0.05409789803147551 0.0598815907841363
    vertex 0.2 0.0567695979974778 0.06427346033710563
    vertex 0.2 0.05224621729369334 0.06454344297076921
  endloop
endfacet
facet normal 1 0 -0
  outer loop
    vertex 0.2 0.03584361080838717 0.04485506841659719
    vertex 0.2 0.0390715785820187 0.04984386012461017
    vertex 0.2 0.03409728318185615 0.04893747748866308
  endloop
endfacet
facet normal 1 0 0
  outer loop
    vertex 0.2 0.04098343285647031 0.03874775710861082
    vertex 0.2 0.03693408794449737 0.04041971716574115
    vertex 0.2 0.03639654524458161 0.03533896256340348
  endloop
endfacet
facet normal 1 0 0
  outer loop
    vertex 0.2 0.03409728318185615 0.04893747748866308
    vertex 0.2 0.0390715785820187 0.04984386012461017
    vertex 0.2 0.03504349501428869 0.05339517326991364
  endloop
endfacet
facet normal 1 0 0
  outer loop
    vertex 0.2 0.06861747497288415 0.05730682048732776
    vertex 0.2 0.06366113257850783 0.05844417788904005
    vertex 0.2 0.06416958879354537 0.05406192214376773
  endloop
endfacet
facet normal 1 0 0
  outer loop
    vertex 0.2 0.05882601774967473 0.05646644936524113
    vertex 0.2 0.06366113257850783 0.05844417788904005
    vertex 0.2 0.05996365627366615 0.06095211964453867
  endloop
endfacet
facet normal 1 0 0
  outer loop
    vertex 0.2 0.0390715785820187 0.04984386012461017
    vertex 0.2 0.04037083808865679 0.0445592533666174
    vertex 0.2 0.04436652213942183 0.04850006391834264
  endloop
endfacet
facet normal 1 0 0
  outer loop
    vertex 0.2 0.06493005572615781 0.04414038492245968
    vertex 0.2 0.06267214436019561 0.04040846943723846
    vertex 0.2 0.06732050807568871 0.03999999999999987
  endloop
endfacet
facet normal 1 0 -0
  outer loop
    vertex 0.2 0.03699739263932328 0.05821594479178914
    vertex 0.2 0.03917921395413442 0.06187318353532416
    vertex 0.2 0.03436337035063941 0.06246979603717469
  endloop
endfacet
facet normal 1 -0 0
  outer loop
    vertex 0.2 0.03584361080838717 0.04485506841659719
    vertex 0.2 0.04037083808865679 0.0445592533666174
    vertex 0.2 0.0390715785820187 0.04984386012461017
  endloop
endfacet
facet normal 1 0 -0
  outer loop
    vertex 0.2 0.05298084532352342 0.03022338347549742
    vertex 0.2 0.05469932607559278 0.03419693345371344
    vertex 0.2 0.05015327132306917 0.03360026192335366
  endloop
endfacet
facet normal 1 0 0
  outer loop
    vertex 0.2 0.05015327132306917 0.03360026192335366
    vertex 0.2 0.05469932607559278 0.03419693345371344
    vertex 0.2 0.05190782453577506 0.03771466072718755
  endloop
endfacet
facet normal 1 0 0
  outer loop
    vertex 0.2 0.03504349501428869 0.05339517326991364
    vertex 0.2 0.03950984024875727 0.05483185150482522
    vertex 0.2 0.03699739263932328 0.05821594479178914
  endloop
endfacet
facet normal 1 -0 0
  outer loop
    vertex 0.2 0.03917921395413442 0.06187318353532416
    vertex 0.2 0.04193184156898203 0.05851330863208774
    vertex 0.2 0.04353874697457025 0.06337650528833083
  endloop
endfacet
facet normal 1 0 0
  outer loop
    vertex 0.2 0.04399709872110763 0.05369349452706713
    vertex 0.2 0.04193184156898203 0.05851330863208774
    vertex 0.2 0.03950984024875727 0.05483185150482522
  endloop
endfacet
endsolid Created by Gmsh
