solid Created by Gmsh
facet normal -1 0 0
  outer loop
    vertex 0 0.01203668952773831 0.003384017314274072
    vertex 0 0.013 0.004021041070599631
    vertex 0 0.013 0.002573235157598372
  endloop
endfacet
facet normal -1 0 0
  outer loop
    vertex 0 0.013 0.002573235157598372
    vertex 0 0.013 0.004021041070599631
    vertex 0 0.01396331047226169 0.003384017314274072
  endloop
endfacet
facet normal -1 -0 0
  outer loop
    vertex 0 0.01366666666666667 0.00649999999999995
    vertex 0 0.013 0.005356781042276037
    vertex 0 0.01233333333333333 0.00649999999999995
  endloop
endfacet
facet normal -1 0 0
  outer loop
    vertex 0 0.011 0.004000000000000003
    vertex 0 0.01203668952773831 0.003384017314274072
    vertex 0 0.011 0.002750000000000029
  endloop
endfacet
facet normal -1 0 0
  outer loop
    vertex 0 0.015 0.002750000000000029
    vertex 0 0.01396331047226169 0.003384017314274072
    vertex 0 0.015 0.004000000000000003
  endloop
endfacet
facet normal -1 0 0
  outer loop
    vertex 0 0.011 0.004000000000000003
    vertex 0 0.01203205157860278 0.00462499999999999
    vertex 0 0.01203668952773831 0.003384017314274072
  endloop
endfacet
facet normal -1 0 0
  outer loop
    vertex 0 0.011 0.005249999999999977
    vertex 0 0.01203205157860278 0.00462499999999999
    vertex 0 0.011 0.004000000000000003
  endloop
endfacet
facet normal -1 0 0
  outer loop
    vertex 0 0.01396331047226169 0.003384017314274072
    vertex 0 0.01396794842139722 0.00462499999999999
    vertex 0 0.015 0.004000000000000003
  endloop
endfacet
facet normal -1 0 0
  outer loop
    vertex 0 0.015 0.004000000000000003
    vertex 0 0.01396794842139722 0.00462499999999999
    vertex 0 0.015 0.005249999999999977
  endloop
endfacet
facet normal -1 0 0
  outer loop
    vertex 0 0.01233333333333333 0.001500000000000057
    vertex 0 0.013 0.002573235157598372
    vertex 0 0.01366666666666667 0.001500000000000057
  endloop
endfacet
facet normal -1 0 -0
  outer loop
    vertex 0 0.013 0.005356781042276037
    vertex 0 0.013 0.004021041070599631
    vertex 0 0.01203205157860278 0.00462499999999999
  endloop
endfacet
facet normal -1 -0 0
  outer loop
    vertex 0 0.01396794842139722 0.00462499999999999
    vertex 0 0.013 0.004021041070599631
    vertex 0 0.013 0.005356781042276037
  endloop
endfacet
facet normal -1 0 0
  outer loop
    vertex 0 0.011 0.001500000000000057
    vertex 0 0.01192403436035195 0.002399525539931018
    vertex 0 0.01233333333333333 0.001500000000000057
  endloop
endfacet
facet normal -1 0 0
  outer loop
    vertex 0 0.01366666666666667 0.001500000000000057
    vertex 0 0.01407596563964805 0.002399525539931018
    vertex 0 0.015 0.001500000000000057
  endloop
endfacet
facet normal -1 -0 0
  outer loop
    vertex 0 0.01233333333333333 0.00649999999999995
    vertex 0 0.01187307698238722 0.005646356208455181
    vertex 0 0.011 0.00649999999999995
  endloop
endfacet
facet normal -1 -0 0
  outer loop
    vertex 0 0.015 0.00649999999999995
    vertex 0 0.01412692301761278 0.005646356208455181
    vertex 0 0.01366666666666667 0.00649999999999995
  endloop
endfacet
facet normal -1 0 0
  outer loop
    vertex 0 0.011 0.002750000000000029
    vertex 0 0.01192403436035195 0.002399525539931018
    vertex 0 0.011 0.001500000000000057
  endloop
endfacet
facet normal -1 0 0
  outer loop
    vertex 0 0.015 0.001500000000000057
    vertex 0 0.01407596563964805 0.002399525539931018
    vertex 0 0.015 0.002750000000000029
  endloop
endfacet
facet normal -1 0 0
  outer loop
    vertex 0 0.011 0.00649999999999995
    vertex 0 0.01187307698238722 0.005646356208455181
    vertex 0 0.011 0.005249999999999977
  endloop
endfacet
facet normal -1 0 0
  outer loop
    vertex 0 0.015 0.005249999999999977
    vertex 0 0.01412692301761278 0.005646356208455181
    vertex 0 0.015 0.00649999999999995
  endloop
endfacet
facet normal -1 0 0
  outer loop
    vertex 0 0.01203205157860278 0.00462499999999999
    vertex 0 0.013 0.004021041070599631
    vertex 0 0.01203668952773831 0.003384017314274072
  endloop
endfacet
facet normal -1 0 0
  outer loop
    vertex 0 0.01396331047226169 0.003384017314274072
    vertex 0 0.013 0.004021041070599631
    vertex 0 0.01396794842139722 0.00462499999999999
  endloop
endfacet
facet normal -1 0 0
  outer loop
    vertex 0 0.013 0.005356781042276037
    vertex 0 0.01187307698238722 0.005646356208455181
    vertex 0 0.01233333333333333 0.00649999999999995
  endloop
endfacet
facet normal -1 0 -0
  outer loop
    vertex 0 0.01366666666666667 0.00649999999999995
    vertex 0 0.01412692301761278 0.005646356208455181
    vertex 0 0.013 0.005356781042276037
  endloop
endfacet
facet normal -1 0 0
  outer loop
    vertex 0 0.01203668952773831 0.003384017314274072
    vertex 0 0.01192403436035195 0.002399525539931018
    vertex 0 0.011 0.002750000000000029
  endloop
endfacet
facet normal -1 -0 0
  outer loop
    vertex 0 0.013 0.002573235157598372
    vertex 0 0.01192403436035195 0.002399525539931018
    vertex 0 0.01203668952773831 0.003384017314274072
  endloop
endfacet
facet normal -1 0 0
  outer loop
    vertex 0 0.01203205157860278 0.00462499999999999
    vertex 0 0.01187307698238722 0.005646356208455181
    vertex 0 0.013 0.005356781042276037
  endloop
endfacet
facet normal -1 0 0
  outer loop
    vertex 0 0.013 0.005356781042276037
    vertex 0 0.01412692301761278 0.005646356208455181
    vertex 0 0.01396794842139722 0.00462499999999999
  endloop
endfacet
facet normal -1 -0 0
  outer loop
    vertex 0 0.015 0.002750000000000029
    vertex 0 0.01407596563964805 0.002399525539931018
    vertex 0 0.01396331047226169 0.003384017314274072
  endloop
endfacet
facet normal -1 0 -0
  outer loop
    vertex 0 0.01396331047226169 0.003384017314274072
    vertex 0 0.01407596563964805 0.002399525539931018
    vertex 0 0.013 0.002573235157598372
  endloop
endfacet
facet normal -1 0 0
  outer loop
    vertex 0 0.01233333333333333 0.001500000000000057
    vertex 0 0.01192403436035195 0.002399525539931018
    vertex 0 0.013 0.002573235157598372
  endloop
endfacet
facet normal -1 0 0
  outer loop
    vertex 0 0.013 0.002573235157598372
    vertex 0 0.01407596563964805 0.002399525539931018
    vertex 0 0.01366666666666667 0.001500000000000057
  endloop
endfacet
facet normal -1 0 0
  outer loop
    vertex 0 0.011 0.005249999999999977
    vertex 0 0.01187307698238722 0.005646356208455181
    vertex 0 0.01203205157860278 0.00462499999999999
  endloop
endfacet
facet normal -1 0 0
  outer loop
    vertex 0 0.01396794842139722 0.00462499999999999
    vertex 0 0.01412692301761278 0.005646356208455181
    vertex 0 0.015 0.005249999999999977
  endloop
endfacet
endsolid Created by Gmsh
