solid Created by Gmsh
facet normal 1 -0 0
  outer loop
    vertex 0.06 0.02603668952773831 0.003384017314274072
    vertex 0.06 0.027 0.002573235157598372
    vertex 0.06 0.027 0.004025906612189168
  endloop
endfacet
facet normal 1 0 0
  outer loop
    vertex 0.06 0.027 0.002573235157598372
    vertex 0.06 0.02796331047226169 0.003384017314274072
    vertex 0.06 0.027 0.004025906612189168
  endloop
endfacet
facet normal 1 0 -1.74805e-12
  outer loop
    vertex 0.060000000000002 0.02766666666666667 0.00649999999999995
    vertex 0.060000000000002 0.02633333333333333 0.00649999999999995
    vertex 0.06 0.027 0.005356781042276037
  endloop
endfacet
facet normal 1 0 0
  outer loop
    vertex 0.06 0.025 0.004000000000000003
    vertex 0.06 0.025 0.002750000000000029
    vertex 0.06 0.02603668952773831 0.003384017314274072
  endloop
endfacet
facet normal 1 0 -0
  outer loop
    vertex 0.06 0.029 0.002750000000000029
    vertex 0.06 0.029 0.004000000000000003
    vertex 0.06 0.02796331047226169 0.003384017314274072
  endloop
endfacet
facet normal 1 -0 0
  outer loop
    vertex 0.06 0.025 0.004000000000000003
    vertex 0.06 0.02603668952773831 0.003384017314274072
    vertex 0.06 0.02603205157860278 0.00462499999999999
  endloop
endfacet
facet normal 1 0 0
  outer loop
    vertex 0.06 0.025 0.005249999999999977
    vertex 0.06 0.025 0.004000000000000003
    vertex 0.06 0.02603205157860278 0.00462499999999999
  endloop
endfacet
facet normal 1 0 0
  outer loop
    vertex 0.06 0.02796331047226169 0.003384017314274072
    vertex 0.06 0.029 0.004000000000000003
    vertex 0.06 0.02796794842139723 0.00462499999999999
  endloop
endfacet
facet normal 1 0 -0
  outer loop
    vertex 0.06 0.029 0.004000000000000003
    vertex 0.06 0.029 0.005249999999999977
    vertex 0.06 0.02796794842139723 0.00462499999999999
  endloop
endfacet
facet normal 1 -0 1.86204e-12
  outer loop
    vertex 0.060000000000002 0.02633333333333333 0.001500000000000057
    vertex 0.060000000000002 0.02766666666666667 0.001500000000000057
    vertex 0.06 0.027 0.002573235157598372
  endloop
endfacet
facet normal 1 0 0
  outer loop
    vertex 0.06 0.027 0.005356781042276037
    vertex 0.06 0.02603205157860278 0.00462499999999999
    vertex 0.06 0.027 0.004025906612189168
  endloop
endfacet
facet normal 1 0 0
  outer loop
    vertex 0.06 0.02796794842139723 0.00462499999999999
    vertex 0.06 0.027 0.005356781042276037
    vertex 0.06 0.027 0.004025906612189168
  endloop
endfacet
facet normal 1 -1.4988e-12 1.53964e-12
  outer loop
    vertex 0.06 0.025 0.001500000000000057
    vertex 0.060000000000002 0.02633333333333333 0.001500000000000057
    vertex 0.06 0.02592403436035195 0.002399525539931018
  endloop
endfacet
facet normal 1 1.4988e-12 1.53964e-12
  outer loop
    vertex 0.060000000000002 0.02766666666666667 0.001500000000000057
    vertex 0.06 0.029 0.001500000000000057
    vertex 0.06 0.02807596563964805 0.002399525539931018
  endloop
endfacet
facet normal 1 -1.4988e-12 -1.53292e-12
  outer loop
    vertex 0.060000000000002 0.02633333333333333 0.00649999999999995
    vertex 0.06 0.025 0.00649999999999995
    vertex 0.06 0.02587307698238722 0.005646356208455181
  endloop
endfacet
facet normal 1 1.4988e-12 -1.53292e-12
  outer loop
    vertex 0.06 0.029 0.00649999999999995
    vertex 0.060000000000002 0.02766666666666667 0.00649999999999995
    vertex 0.06 0.02812692301761278 0.005646356208455181
  endloop
endfacet
facet normal 1 0 0
  outer loop
    vertex 0.06 0.025 0.002750000000000029
    vertex 0.06 0.025 0.001500000000000057
    vertex 0.06 0.02592403436035195 0.002399525539931018
  endloop
endfacet
facet normal 1 0 -0
  outer loop
    vertex 0.06 0.029 0.001500000000000057
    vertex 0.06 0.029 0.002750000000000029
    vertex 0.06 0.02807596563964805 0.002399525539931018
  endloop
endfacet
facet normal 1 0 0
  outer loop
    vertex 0.06 0.025 0.00649999999999995
    vertex 0.06 0.025 0.005249999999999977
    vertex 0.06 0.02587307698238722 0.005646356208455181
  endloop
endfacet
facet normal 1 0 -0
  outer loop
    vertex 0.06 0.029 0.005249999999999977
    vertex 0.06 0.029 0.00649999999999995
    vertex 0.06 0.02812692301761278 0.005646356208455181
  endloop
endfacet
facet normal 1 0 0
  outer loop
    vertex 0.06 0.02603205157860278 0.00462499999999999
    vertex 0.06 0.02603668952773831 0.003384017314274072
    vertex 0.06 0.027 0.004025906612189168
  endloop
endfacet
facet normal 1 0 -0
  outer loop
    vertex 0.06 0.02796331047226169 0.003384017314274072
    vertex 0.06 0.02796794842139723 0.00462499999999999
    vertex 0.06 0.027 0.004025906612189168
  endloop
endfacet
facet normal 1 -5.28352e-13 -2.05616e-12
  outer loop
    vertex 0.06 0.027 0.005356781042276037
    vertex 0.060000000000002 0.02633333333333333 0.00649999999999995
    vertex 0.06 0.02587307698238722 0.005646356208455181
  endloop
endfacet
facet normal 1 5.28352e-13 -2.05616e-12
  outer loop
    vertex 0.060000000000002 0.02766666666666667 0.00649999999999995
    vertex 0.06 0.027 0.005356781042276037
    vertex 0.06 0.02812692301761278 0.005646356208455181
  endloop
endfacet
facet normal 1 0 0
  outer loop
    vertex 0.06 0.02603668952773831 0.003384017314274072
    vertex 0.06 0.025 0.002750000000000029
    vertex 0.06 0.02592403436035195 0.002399525539931018
  endloop
endfacet
facet normal 1 0 0
  outer loop
    vertex 0.06 0.027 0.002573235157598372
    vertex 0.06 0.02603668952773831 0.003384017314274072
    vertex 0.06 0.02592403436035195 0.002399525539931018
  endloop
endfacet
facet normal 1 0 -0
  outer loop
    vertex 0.06 0.02603205157860278 0.00462499999999999
    vertex 0.06 0.027 0.005356781042276037
    vertex 0.06 0.02587307698238722 0.005646356208455181
  endloop
endfacet
facet normal 1 -0 0
  outer loop
    vertex 0.06 0.027 0.005356781042276037
    vertex 0.06 0.02796794842139723 0.00462499999999999
    vertex 0.06 0.02812692301761278 0.005646356208455181
  endloop
endfacet
facet normal 1 0 0
  outer loop
    vertex 0.06 0.029 0.002750000000000029
    vertex 0.06 0.02796331047226169 0.003384017314274072
    vertex 0.06 0.02807596563964805 0.002399525539931018
  endloop
endfacet
facet normal 1 0 0
  outer loop
    vertex 0.06 0.02796331047226169 0.003384017314274072
    vertex 0.06 0.027 0.002573235157598372
    vertex 0.06 0.02807596563964805 0.002399525539931018
  endloop
endfacet
facet normal 1 -3.34125e-13 2.06958e-12
  outer loop
    vertex 0.060000000000002 0.02633333333333333 0.001500000000000057
    vertex 0.06 0.027 0.002573235157598372
    vertex 0.06 0.02592403436035195 0.002399525539931018
  endloop
endfacet
facet normal 1 3.34125e-13 2.06958e-12
  outer loop
    vertex 0.06 0.027 0.002573235157598372
    vertex 0.060000000000002 0.02766666666666667 0.001500000000000057
    vertex 0.06 0.02807596563964805 0.002399525539931018
  endloop
endfacet
facet normal 1 -0 0
  outer loop
    vertex 0.06 0.025 0.005249999999999977
    vertex 0.06 0.02603205157860278 0.00462499999999999
    vertex 0.06 0.02587307698238722 0.005646356208455181
  endloop
endfacet
facet normal 1 0 0
  outer loop
    vertex 0.06 0.02796794842139723 0.00462499999999999
    vertex 0.06 0.029 0.005249999999999977
    vertex 0.06 0.02812692301761278 0.005646356208455181
  endloop
endfacet
endsolid Created by Gmsh
